<svg width="140" height="139" viewBox="0 0 140 139" fill="none" xmlns="http://www.w3.org/2000/svg">
<path d="M140 69.5C140 107.884 108.66 139 70 139C31.3401 139 0 107.884 0 69.5C0 31.1162 31.3401 0 70 0C108.66 0 140 31.1162 140 69.5Z" fill="#D9D9D9"/>
<path d="M36 116C36.3234 104.554 39.9268 94.103 46.2424 86.367C52.7613 78.3894 61.5463 74 70.9996 74C80.4529 74 89.2387 78.3894 95.7568 86.367C102.072 94.103 105.676 104.554 106 116H36Z" fill="#F5F5F5" fill-opacity="0.8"/>
<path d="M70 25C81.5981 25 91 34.8496 91 47C91 59.1504 81.5981 69 70 69C58.4019 69 49 59.1504 49 47C49.0114 34.8547 58.4068 25.0119 70 25Z" fill="#F5F5F5" fill-opacity="0.8"/>
</svg>
