<svg width="29" height="30" viewBox="0 0 29 30" fill="none" xmlns="http://www.w3.org/2000/svg">
<path d="M22.0074 13.2737C21.7216 13.2758 21.5323 13.4729 21.534 13.7664C21.5503 16.5058 19.3721 18.6743 16.562 18.6951L12.2754 18.7268C9.46534 18.7476 7.2617 16.6114 7.24547 13.872C7.24373 13.5785 7.05208 13.3843 6.76631 13.3864C6.48053 13.3885 6.2912 13.5855 6.29294 13.8791C6.31235 17.1565 8.94726 19.7298 12.2813 19.7052L16.5679 19.6735C19.9018 19.6488 22.5061 17.0368 22.4867 13.7593C22.4849 13.4658 22.2932 13.2716 22.0074 13.2737Z" fill="#F5F5F5" fill-opacity="0.8"/>
<path d="M25.813 3.93797L24.3361 3.9489L24.3332 3.45928L24.3213 1.45174C24.3166 0.668284 23.6935 0.0363555 22.9789 0.041643L5.68425 0.1696C4.92192 0.175241 4.30634 0.816334 4.31098 1.59979L4.32286 3.60733L4.32576 4.09695L2.84883 4.10788C1.32422 4.11916 0.0459567 5.49964 0.0552333 7.06651L0.0813235 11.4733C0.0934989 13.5297 1.15323 15.4805 2.87478 16.5451L5.60032 18.1897L5.90219 18.3642C7.21097 20.1955 9.25228 21.4385 11.5765 21.6374L11.5883 23.6296L11.5406 23.6299C10.7784 23.6356 10.1627 24.2767 10.1674 25.0601L10.1705 25.5988L9.21765 25.6058C7.35956 25.6196 5.89161 27.1483 5.90292 29.0579C5.90465 29.3517 6.09637 29.5461 6.38223 29.544L22.581 29.4242C22.8669 29.4221 23.0563 29.2248 23.0546 28.931C23.0432 27.0215 21.5573 25.5145 19.6992 25.5283L18.6987 25.5357L18.6955 24.997C18.6909 24.2136 18.0678 23.5817 17.3054 23.5873L17.2101 23.588L17.1984 21.6045C19.6042 21.3931 21.7016 20.0662 23.0015 18.1431L25.934 16.3255C27.6428 15.2356 28.6797 13.3182 28.6675 11.2618L28.6414 6.85501C28.6318 5.2392 27.3376 3.92669 25.813 3.93797ZM5.26387 1.59274C5.26242 1.34791 5.45182 1.15066 5.69005 1.1489L22.9371 1.02129C23.1753 1.01953 23.367 1.21396 23.3685 1.45879L23.3774 2.97665L5.27286 3.1106L5.26387 1.59274ZM4.39127 13.9729L4.33641 13.939C3.47592 13.4558 2.94603 12.4803 2.93994 11.4521L2.91385 7.04536L4.34316 7.03478L4.38229 13.6449C4.38294 13.7548 4.38633 13.8641 4.39127 13.9729ZM3.39366 15.6598C1.95914 14.789 1.04436 13.1799 1.03421 11.4661L1.00812 7.0594C1.00175 5.98221 1.85411 5.09452 2.85463 5.08712L4.33156 5.07619L4.33736 6.05548L2.81274 6.06677C2.33633 6.07029 1.95835 6.61173 1.96096 7.05241L1.98705 11.4592C1.99517 12.8301 2.71765 14.1469 3.86515 14.8239L4.54543 15.2368C4.64138 15.713 4.778 16.1738 4.95175 16.6153L3.39366 15.6598ZM22.0512 28.4488L6.90053 28.5609C7.1321 27.4329 8.08001 26.5935 9.22345 26.5851L10.6528 26.5745L18.2757 26.5181L19.705 26.5075C20.8485 26.499 21.8063 27.3244 22.0512 28.4488ZM17.3589 24.5662C17.5971 24.5645 17.7889 24.7589 17.7903 25.0037L17.7935 25.5424L11.1234 25.5917L11.1202 25.0531C11.1188 24.8083 11.3082 24.611 11.5464 24.6092L12.0705 24.6054L16.8349 24.5701L17.3589 24.5662ZM12.5411 23.6225L12.5296 21.664L16.3411 21.6358L16.3527 23.5943L12.5411 23.6225ZM16.9084 20.6928C16.8527 20.6664 16.7911 20.6531 16.7164 20.6537L16.6211 20.6544C16.5734 20.6548 16.5734 20.6548 16.5258 20.6551L12.2378 20.6868C12.1902 20.6872 12.1902 20.6872 12.1425 20.6875L12.0472 20.6882C11.9998 20.6886 11.9405 20.7012 11.8813 20.726C9.7211 20.6134 7.81889 19.477 6.6296 17.7772C6.61783 17.7146 6.59223 17.6526 6.54962 17.5951C5.97297 16.7669 5.63398 15.8391 5.43728 14.8122C5.43284 14.7988 5.42757 14.7854 5.42235 14.772C5.36722 14.4183 5.33755 14.0559 5.33536 13.6867L5.29304 6.53806L5.28144 4.57952L5.27854 4.0899L23.3831 3.95595L23.386 4.44557L23.3982 6.50205L23.4399 13.5528C23.4625 17.3546 20.5637 20.4858 16.9084 20.6928ZM24.3929 13.5458L24.354 6.98462L25.7833 6.97405L25.8094 11.3808C25.8155 12.409 25.2969 13.3432 24.4425 13.8882L24.3861 13.9242C24.3911 13.7987 24.3936 13.6726 24.3929 13.5458ZM27.7623 11.2685C27.7724 12.9822 26.8768 14.6047 25.4527 15.4966L23.8862 16.4876C24.0266 16.0458 24.1669 15.6041 24.2593 15.1138L24.8757 14.6196C26.0151 13.9256 26.7222 12.6473 26.7141 11.2763L26.688 6.86952C26.6851 6.3799 26.3488 5.89269 25.8247 5.89656L24.3477 5.90749L24.3419 4.92814L25.8665 4.91686C26.867 4.90946 27.7298 5.78446 27.7362 6.86165L27.7623 11.2685Z" fill="#F5F5F5" fill-opacity="0.8"/>
<path d="M11.9398 10.9907L11.5272 13.7359C11.4808 13.9321 11.5772 14.1273 11.7207 14.2241C11.8642 14.321 12.1024 14.3193 12.2448 14.2203L14.3812 12.9313L16.533 14.2375C16.6286 14.2857 16.6763 14.2854 16.7716 14.2847C16.8669 14.284 16.9618 14.2343 17.0568 14.1846C17.1992 14.0856 17.2933 13.889 17.2445 13.6936L16.7995 10.9547L18.5486 8.64035C18.6431 8.49275 18.6893 8.24756 18.5931 8.10137C18.4966 7.90624 18.3531 7.80935 18.1626 7.81076L15.8756 7.82768L14.7668 5.6324C14.5742 5.29108 14.0501 5.29495 13.9092 5.63874L12.8264 7.85024L10.5395 7.86716C10.3489 7.86857 10.2069 8.01652 10.1124 8.16411C10.0183 8.36066 10.0671 8.5562 10.1633 8.70239L11.9398 10.9907ZM13.1187 8.92543C13.3093 8.92402 13.4516 8.82501 13.546 8.67742L14.3464 7.05561L15.166 8.66543C15.2621 8.81162 15.4057 8.90851 15.5962 8.9071L17.1685 8.89547L15.8919 10.5697C15.7972 10.6684 15.7981 10.8153 15.7989 10.9622L16.1435 12.8204L14.6136 11.9503C14.518 11.9021 14.4704 11.9024 14.3751 11.9031C14.2798 11.9038 14.2322 11.9042 14.1851 12.0025L12.6657 12.8951L12.9403 10.9834C12.987 10.8361 12.9385 10.6896 12.8426 10.5924L11.5464 8.93712L13.1187 8.92543Z" fill="#F5F5F5" fill-opacity="0.8"/>
</svg>
