<svg width="28" height="29" viewBox="0 0 28 29" fill="none" xmlns="http://www.w3.org/2000/svg">
<path d="M3.06592 19.3425L9.19922 25.6528L11.5373 24.6621L4.02973 16.9369L3.06592 19.3425Z" fill="#F5F5F5" fill-opacity="0.8"/>
<path d="M27.3812 0.636884C26.9041 0.145966 26.2284 -0.0808971 25.5617 0.0259515L21.2741 0.714306C19.4789 1.00289 17.8198 1.87102 16.5346 3.19236L12.8432 6.98933L11.5237 8.34742L9.99226 9.92353L9.22894 9.13767L10.4141 7.91873L7.94553 6.96683C6.77653 6.51558 5.45933 6.80906 4.57651 7.71736L0.359349 12.0557C0.055068 12.3687 -0.0673225 12.8214 0.0360367 13.2496C0.138904 13.6773 0.4527 14.0203 0.863184 14.1506L5.33847 15.5758L12.8604 23.3162L14.2461 27.9202C14.3722 28.343 14.7056 28.6643 15.1223 28.7707C15.538 28.877 15.9785 28.7515 16.2823 28.4385L20.4985 24.0996C21.3814 23.1913 21.6666 21.8366 21.229 20.6334L20.3032 18.094L19.1185 19.3129L18.3547 18.5271L19.8866 16.9504L21.2056 15.5934L24.897 11.7959C26.1823 10.4736 27.0256 8.76564 27.3052 6.91912L27.9746 2.50822C28.0788 1.82246 27.8584 1.1273 27.3812 0.636884ZM21.7898 10.9465C20.5665 12.2052 18.5832 12.2052 17.3603 10.9465C16.1369 9.68834 16.1369 7.64776 17.3598 6.38864C18.5832 5.12947 20.5665 5.13049 21.7898 6.38915C23.0127 7.64781 23.0131 9.68739 21.7898 10.9465Z" fill="#F5F5F5" fill-opacity="0.8"/>
</svg>
