<svg width="26" height="30" viewBox="0 0 26 30" fill="none" xmlns="http://www.w3.org/2000/svg">
<path d="M17.0859 10.4394C17.0859 11.8098 14.5495 12.9206 11.4209 12.9206C8.29155 12.9206 5.75513 11.8097 5.75513 10.4394C5.75513 9.06813 8.29155 7.95636 11.4209 7.95636C14.5495 7.9563 17.0859 9.06807 17.0859 10.4394Z" fill="#F5F5F5" fill-opacity="0.8"/>
<path d="M5.75518 27.3545C5.75518 28.7257 8.29161 29.8366 11.421 29.8366C14.5495 29.8366 17.086 28.7257 17.086 27.3545V26.7389C17.086 26.5495 16.9939 26.3729 16.8391 26.2673C16.686 26.1635 16.4912 26.1452 16.3213 26.2199C16.3213 26.2199 14.5495 27.3462 11.421 27.3462C8.29161 27.3462 6.51893 26.2199 6.51893 26.2199C6.34991 26.1452 6.15518 26.1634 6.00117 26.2673C5.84717 26.3729 5.75513 26.5495 5.75513 26.7389L5.75518 27.3545Z" fill="#F5F5F5" fill-opacity="0.8"/>
<path d="M5.75518 23.1378C5.75518 24.5091 8.29161 25.619 11.421 25.619C14.5495 25.619 17.086 24.5091 17.086 23.1378V22.5214C17.086 22.332 16.9939 22.1554 16.8391 22.0497C16.686 21.9459 16.4912 21.9277 16.3213 22.0023C16.3213 22.0023 14.5495 23.1287 11.421 23.1287C8.29161 23.1287 6.51893 22.0023 6.51893 22.0023C6.34991 21.9277 6.15518 21.9459 6.00117 22.0497C5.84717 22.1554 5.75513 22.332 5.75513 22.5214L5.75518 23.1378Z" fill="#F5F5F5" fill-opacity="0.8"/>
<path d="M5.75518 18.9211C5.75518 20.2924 8.29161 21.4023 11.421 21.4023C14.5495 21.4023 17.086 20.2924 17.086 18.9211V18.3037C17.086 18.1144 16.9939 17.9377 16.8391 17.8321C16.686 17.7283 16.4912 17.71 16.3213 17.7847C16.3213 17.7847 14.5495 18.912 11.421 18.912C8.29161 18.912 6.51893 17.7847 6.51893 17.7847C6.34991 17.71 6.15518 17.7282 6.00117 17.8321C5.84717 17.9377 5.75513 18.1144 5.75513 18.3037L5.75518 18.9211Z" fill="#F5F5F5" fill-opacity="0.8"/>
<path d="M5.75518 14.7035C5.75518 16.0747 8.29161 17.1856 11.421 17.1856C14.5495 17.1856 17.086 16.0747 17.086 14.7035V14.0879C17.086 13.8976 16.9939 13.7219 16.8391 13.6163C16.686 13.5125 16.4912 13.4942 16.3213 13.5689C16.3213 13.5689 14.5495 14.6943 11.421 14.6943C8.29161 14.6943 6.51893 13.5689 6.51893 13.5689C6.34991 13.4942 6.15518 13.5124 6.00117 13.6163C5.84717 13.7219 5.75513 13.8976 5.75513 14.0879L5.75518 14.7035Z" fill="#F5F5F5" fill-opacity="0.8"/>
<path d="M25.8989 5.44321C25.8989 6.81267 23.3625 7.92356 20.2339 7.92356C17.1045 7.92356 14.5681 6.81267 14.5681 5.44321C14.5681 4.07102 17.1045 2.96106 20.2339 2.96106C23.3625 2.96112 25.8989 4.07102 25.8989 5.44321Z" fill="#F5F5F5" fill-opacity="0.8"/>
<path d="M25.8971 21.7401V22.3566C25.8971 23.7278 23.3607 24.8378 20.2365 24.8378C19.502 24.8378 18.8063 24.7777 18.1638 24.6666V22.1735C18.7683 22.2792 19.4595 22.352 20.2365 22.352C23.3606 22.352 25.135 21.2248 25.135 21.2248C25.3032 21.1464 25.497 21.1683 25.6536 21.2685C25.805 21.3741 25.8971 21.5525 25.8971 21.7401Z" fill="#F5F5F5" fill-opacity="0.8"/>
<path d="M25.8971 17.5261V18.1435C25.8971 19.5139 23.3607 20.6238 20.2365 20.6238C19.502 20.6238 18.8063 20.5637 18.1638 20.4526V17.9541C18.7683 18.0597 19.4595 18.1326 20.2365 18.1326C23.3606 18.1326 25.135 17.0053 25.135 17.0053C25.3032 16.9334 25.497 16.9489 25.6536 17.0545C25.805 17.1601 25.8971 17.3331 25.8971 17.5261Z" fill="#F5F5F5" fill-opacity="0.8"/>
<path d="M25.8971 13.3085V13.924C25.8971 15.2953 23.3607 16.4062 20.2365 16.4062C19.502 16.4062 18.8063 16.3442 18.1638 16.2332V13.7346C18.7683 13.8403 19.4595 13.9131 20.2365 13.9131C23.3606 13.9131 25.135 12.7859 25.135 12.7859C25.3032 12.714 25.497 12.7303 25.6536 12.8369C25.805 12.9406 25.8971 13.1191 25.8971 13.3085Z" fill="#F5F5F5" fill-opacity="0.8"/>
<path d="M25.8971 9.08902V9.70458C25.8971 11.0758 23.3607 12.1858 20.2366 12.1858C19.502 12.1858 18.8064 12.1248 18.1639 12.0146V10.4375C18.1639 10.0933 18.094 9.77737 17.9595 9.48232C18.6073 9.60983 19.3675 9.69904 20.2366 9.69904C22.9014 9.69904 24.5855 8.87772 25.0218 8.63914C25.0979 8.59544 25.1351 8.57178 25.1351 8.57178C25.3033 8.49439 25.4971 8.51712 25.6537 8.61642C25.7236 8.66647 25.7829 8.72842 25.821 8.80488C25.8697 8.88868 25.8971 8.98885 25.8971 9.08902Z" fill="#F5F5F5" fill-opacity="0.8"/>
<path d="M11.3308 2.48215C11.3308 3.85254 8.79346 4.9625 5.66497 4.9625C2.53648 4.9625 0 3.85248 0 2.48215C0 1.11089 2.53642 0 5.66497 0C8.79351 0 11.3308 1.11089 11.3308 2.48215Z" fill="#F5F5F5" fill-opacity="0.8"/>
<path d="M4.67456 19.3472V21.8403C2.01953 21.6345 0.00170898 20.6192 0.00170898 19.3982V18.7818C0.00170898 18.5933 0.0937499 18.4158 0.245094 18.3092C0.400855 18.2045 0.595586 18.1881 0.762846 18.2601C0.762846 18.2601 2.16555 19.1478 4.67456 19.3472Z" fill="#F5F5F5" fill-opacity="0.8"/>
<path d="M4.67456 15.135V17.6208C2.01953 17.4159 0.00170898 16.4007 0.00170898 15.1788V14.5632C0.00170898 14.3738 0.0937499 14.1953 0.245094 14.0915C0.400855 13.9905 0.595586 13.9677 0.762846 14.046C0.762846 14.046 2.16555 14.9347 4.67456 15.135Z" fill="#F5F5F5" fill-opacity="0.8"/>
<path d="M4.67456 10.9156V13.4078C2.01953 13.202 0.00170898 12.1858 0.00170898 10.9648V10.3492C0.00170898 10.1599 0.0937499 9.98229 0.245094 9.87757C0.400855 9.77104 0.595586 9.75467 0.762846 9.82658C0.762846 9.82658 2.16555 10.7153 4.67456 10.9156Z" fill="#F5F5F5" fill-opacity="0.8"/>
<path d="M11.3281 6.12981V6.74537C11.3281 6.77998 11.3281 6.81273 11.3228 6.84554C8.64648 6.8692 5.95872 7.67322 5.0259 9.21114C2.19829 9.07181 0.00170898 8.02199 0.00170898 6.74537V6.12981C0.00170898 5.94042 0.0937499 5.76379 0.245094 5.65814C0.400855 5.55248 0.595586 5.53611 0.762846 5.6135C0.762846 5.6135 2.53819 6.73983 5.66758 6.73983C8.79165 6.73983 10.567 5.6135 10.567 5.6135C10.659 5.56886 10.7617 5.55796 10.8635 5.56886C10.9396 5.57981 11.0148 5.6135 11.0856 5.65808C11.2148 5.7473 11.2953 5.8857 11.3175 6.04053C11.3281 6.0688 11.3281 6.10155 11.3281 6.12981Z" fill="#F5F5F5" fill-opacity="0.8"/>
<path d="M17.0859 10.4394C17.0859 11.8098 14.5495 12.9206 11.4209 12.9206C8.29155 12.9206 5.75513 11.8097 5.75513 10.4394C5.75513 9.06813 8.29155 7.95636 11.4209 7.95636C14.5495 7.9563 17.0859 9.06807 17.0859 10.4394Z" fill="#F5F5F5" fill-opacity="0.8"/>
</svg>
