<svg width="28" height="28" viewBox="0 0 28 28" fill="none" xmlns="http://www.w3.org/2000/svg">
<path d="M4.78186 23.3598L4.80748 23.3278C5.53241 23.9811 6.43798 24.4274 7.43706 24.5771L7.66925 24.6063L7.6694 27.7789C5.82858 27.6621 4.15215 26.9203 2.83812 25.7571L2.63368 25.57L4.78186 23.3598ZM11.6969 23.1961L13.7919 25.3514C13.8193 25.3795 13.849 25.4038 13.8814 25.423C12.5856 26.7129 10.8774 27.567 8.98004 27.7557L8.69405 27.7789L8.69437 24.6063C9.85192 24.488 10.8961 23.9734 11.6969 23.1961ZM3.05832 19.8882L3.08349 19.8868C3.1719 20.8055 3.48957 21.6548 3.97681 22.3734L4.11384 22.5661L4.05728 22.6143L1.92403 24.8095C0.878581 23.5397 0.191689 21.9475 0.024145 20.1984L0 19.8881L3.05832 19.8882ZM13.2801 19.8868L13.3053 19.8882L16.3636 19.8881C16.262 21.5843 15.6731 23.1448 14.7391 24.4234L14.56 24.6598L14.5165 24.6059L12.37 22.3981C12.8667 21.6743 13.1907 20.816 13.2801 19.8868ZM8.18181 15.1441C10.4455 15.1441 12.2806 17.0321 12.2806 19.3611C12.2806 21.6901 10.4455 23.5781 8.18181 23.5781C5.91811 23.5781 4.08303 21.6901 4.08303 19.3611C4.08303 17.0321 5.91811 15.1441 8.18181 15.1441ZM17.1731 19.773C17.6956 20.071 18.2759 20.2759 18.8916 20.3682L19.1238 20.3974L19.124 23.57C18.1936 23.511 17.3052 23.2923 16.4843 22.9402C16.8849 21.9589 17.1255 20.8917 17.1731 19.773ZM23.1515 18.9872L25.2465 21.1424C25.2738 21.1706 25.3035 21.1949 25.3359 21.2141C24.0401 22.504 22.332 23.3581 20.4346 23.5467L20.1486 23.57L20.1489 20.3974C21.3065 20.2791 22.3507 19.7644 23.1515 18.9872ZM24.7347 15.6778L24.7599 15.6793L27.8182 15.6792C27.7165 17.3754 27.1276 18.9359 26.1937 20.2144L26.0146 20.4508L25.971 20.397L23.8245 18.1892C24.3213 17.4654 24.6453 16.6071 24.7347 15.6778ZM20.8796 11.1333C22.5354 11.6741 23.7352 13.269 23.7352 15.1522C23.7352 17.4812 21.9001 19.3692 19.6364 19.3692C18.6977 19.3692 17.8328 19.0446 17.1418 18.4985C17.0799 17.7933 16.9399 17.1118 16.732 16.4621C18.7003 15.3056 20.2032 13.4053 20.8796 11.1333ZM1.92334 13.9136L4.05728 16.1079L4.11384 16.156C3.59626 16.8504 3.24283 17.681 3.11323 18.5866L3.08349 18.8354L3.05832 18.834L0 18.8339C0.11213 16.9634 0.816826 15.2579 1.92334 13.9136ZM12.1652 16.0456L14.3459 13.801C15.4456 15.0904 16.1691 16.7278 16.3402 18.5317L16.3636 18.8339L13.3053 18.834L13.2801 18.8354C13.1867 17.8648 12.8375 16.9717 12.3027 16.2283L12.1652 16.0456ZM15.7879 12.2529L17.8828 14.4081C17.9102 14.4363 17.9399 14.4606 17.9723 14.4798C17.5113 14.9386 16.9982 15.3424 16.4429 15.6806C16.0284 14.6973 15.4531 13.8027 14.751 13.0317C15.1281 12.8177 15.4764 12.5552 15.7879 12.2529ZM7.6694 10.9432L7.66947 14.0898C7.66947 14.0989 7.66967 14.108 7.67087 14.1157C6.57936 14.2269 5.58856 14.6905 4.81025 15.3941L4.79642 15.378L4.78186 15.3624L2.63368 13.1522C3.97613 11.8817 5.7317 11.0662 7.6694 10.9432ZM8.69415 14.0898L8.69405 10.9432C10.4819 11.0566 12.1146 11.7596 13.411 12.8655L13.6238 13.0535L11.444 15.2962C10.7398 14.6974 9.87747 14.2885 8.93105 14.1458L8.69275 14.1157L8.69415 14.0898ZM25.8005 9.59206C26.9001 10.8815 27.6237 12.5188 27.7948 14.3228L27.8182 14.625L24.7599 14.625L24.7347 14.6265C24.6413 13.6559 24.292 12.7627 23.7573 12.0193L23.6197 11.8367L25.8005 9.59206ZM17.371 8.94353L17.3962 8.94497L20.4545 8.94487C20.3529 10.6411 19.764 12.2016 18.83 13.4801L18.6509 13.7165L18.6074 13.6627L16.4609 11.4549C16.9577 10.7311 17.2816 9.87278 17.371 8.94353ZM12.2727 4.20082C14.5364 4.20082 16.3715 6.08885 16.3715 8.41785C16.3715 10.1283 15.3817 11.6009 13.9592 12.2625C12.4761 10.982 10.5862 10.1859 8.51799 10.1078C8.29626 9.59103 8.17394 9.01913 8.17394 8.41785C8.17394 6.08885 10.009 4.20082 12.2727 4.20082ZM21.1463 6.86218C22.5425 7.12828 23.8146 7.76001 24.8655 8.65656L25.0784 8.84458L22.8985 11.0873C22.3821 10.648 21.7805 10.311 21.1231 10.1062C21.2215 9.55914 21.2727 8.99466 21.2727 8.41785C21.2727 7.88771 21.2294 7.36797 21.1463 6.86218ZM7.17441 8.94353C7.21416 9.35659 7.30024 9.75561 7.42725 10.1351C6.37136 10.2237 5.36761 10.5013 4.44707 10.9338C4.28293 10.3962 4.17053 9.83425 4.11506 9.25512L4.09092 8.94487L7.14924 8.94497L7.17441 8.94353ZM6.01425 2.97033L8.1482 5.16463L8.20475 5.2128C7.68717 5.90713 7.33375 6.7378 7.20415 7.6434L7.17441 7.89217L7.14924 7.89073L4.09092 7.89066C4.20305 6.02016 4.90774 4.31462 6.01425 2.97033ZM18.4369 2.85776C19.5365 4.14717 20.26 5.78453 20.4312 7.58847L20.4545 7.89066L17.3962 7.89073L17.371 7.89217C17.2776 6.92159 16.9284 6.02842 16.3936 5.28504L16.2561 5.10236L18.4369 2.85776ZM11.7603 0L11.7604 3.14656C11.7604 3.15566 11.7606 3.16473 11.7618 3.17245C10.6703 3.28364 9.67948 3.74726 8.90117 4.45085L8.88733 4.43477L8.87278 4.41915L6.72459 2.20892C8.06704 0.938471 9.82261 0.122958 11.7603 0ZM12.785 0C14.5728 0.113403 16.2056 0.816359 17.5019 1.92225L17.7148 2.11028L15.5349 4.35295C14.8307 3.75411 13.9684 3.34521 13.022 3.20253L12.7837 3.17245L12.7851 3.14656L12.785 0Z" fill="#F5F5F5" fill-opacity="0.8"/>
</svg>
