<svg width="50" height="52" viewBox="0 0 50 52" fill="none" xmlns="http://www.w3.org/2000/svg">
<path d="M25 0C11.25 0 0 11.5746 0 25.7212C0 39.8679 11.25 51.4425 25 51.4425C38.75 51.4425 50 39.8679 50 25.7212C50 11.5746 38.75 0 25 0ZM37.25 15.69L33 36.7814C32.75 38.3246 31.75 38.5819 30.75 37.8102L24.25 32.666C22.75 34.2093 21.25 35.4953 21 36.0097C20.5 36.267 20.25 36.7814 19.75 36.7814C19 36.7814 19 36.267 18.75 35.7525L16.5 28.0362L9.75 25.7212C8.25 25.2068 8.25 24.178 10 23.4063L35.5 13.375C36.5 13.1178 37.75 13.6323 37.25 15.69ZM31.25 18.0049L17 27.2645L19.25 34.9809L19.75 29.8366L32 18.5193C32.75 17.7477 32.25 17.7477 31.25 18.0049Z" fill="#D9D9D9"/>
</svg>
