<svg width="50" height="52" viewBox="0 0 50 52" fill="none" xmlns="http://www.w3.org/2000/svg">
<path d="M25 0C11.1927 0 0 11.5156 0 25.7212C0 39.9269 11.1927 51.4425 25 51.4425C38.8073 51.4425 50 39.9269 50 25.7212C50 11.5156 38.8073 0 25 0ZM34.6146 29.0195C34.6146 29.0195 36.8255 31.2647 37.3698 32.307C37.3854 32.3284 37.3932 32.3498 37.3984 32.3605C37.6198 32.7437 37.6719 33.0411 37.5625 33.2635C37.3802 33.6332 36.7552 33.8154 36.5417 33.8315H32.6354C32.3646 33.8315 31.7969 33.7591 31.1094 33.2715C30.5807 32.891 30.0599 32.2668 29.5521 31.6586C28.7943 30.753 28.138 29.9706 27.4766 29.9706C27.3925 29.9705 27.309 29.984 27.2292 30.0108C26.7292 30.1769 26.0885 30.911 26.0885 32.8669C26.0885 33.4778 25.6198 33.8288 25.2891 33.8288H23.5C22.8906 33.8288 19.7161 33.6091 16.9036 30.5574C13.4609 26.8198 10.362 19.3231 10.3359 19.2534C10.1406 18.7685 10.5443 18.5086 10.9844 18.5086H14.9297C15.4557 18.5086 15.6276 18.8381 15.7474 19.1302C15.888 19.4704 16.4036 20.8235 17.25 22.3453C18.6224 24.8264 19.4635 25.8338 20.138 25.8338C20.2645 25.8322 20.3887 25.7991 20.5 25.7373C21.3802 25.2336 21.2161 22.0051 21.1771 21.3352C21.1771 21.2093 21.1745 19.8911 20.724 19.2588C20.401 18.8006 19.8516 18.6265 19.5182 18.5622C19.6531 18.3706 19.8309 18.2153 20.0365 18.1094C20.6406 17.7986 21.7292 17.753 22.8099 17.753H23.4115C24.5833 17.7691 24.8854 17.8468 25.3099 17.9566C26.1693 18.1683 26.1875 18.739 26.112 20.6922C26.0885 21.2468 26.0651 21.8738 26.0651 22.6133C26.0651 22.774 26.0573 22.9455 26.0573 23.1277C26.0312 24.1217 26 25.2497 26.6823 25.7132C26.7713 25.7706 26.8741 25.8012 26.9792 25.8016C27.2161 25.8016 27.9297 25.8016 29.862 22.3909C30.4579 21.2931 30.9758 20.1523 31.4115 18.9775C31.4505 18.9078 31.5651 18.6934 31.7005 18.6104C31.8005 18.558 31.9113 18.5313 32.0234 18.5327H36.6615C37.1667 18.5327 37.513 18.6104 37.5781 18.8113C37.6927 19.1302 37.5573 20.1028 35.4401 23.0527L34.4948 24.336C32.5755 26.9242 32.5755 27.0555 34.6146 29.0195Z" fill="#D9D9D9"/>
</svg>
