<svg width="35" height="35" viewBox="0 0 35 35" fill="none" xmlns="http://www.w3.org/2000/svg">
<path d="M17.8184 14.4375V21.0875H27.5527C26.9711 23.1575 25.6937 24.9746 23.9271 26.245C22.1606 27.5153 20.0082 28.1645 17.8184 28.0875C16.0787 28.0818 14.3661 27.6646 12.8263 26.8714C11.2864 26.0782 9.96481 24.9325 8.97372 23.5317C7.98263 22.1308 7.3514 20.5162 7.13367 18.8251C6.91593 17.134 7.11814 15.4164 7.72311 13.8183C8.32807 12.2202 9.31791 10.7888 10.6085 9.64577C11.899 8.50277 13.4522 7.68196 15.1359 7.25311C16.8196 6.82425 18.5841 6.80003 20.2794 7.18251C21.9748 7.56498 23.5508 8.34284 24.8735 9.44996L29.8746 4.54996C27.729 2.6392 25.1409 1.26895 22.3338 0.557567C19.5267 -0.153816 16.5851 -0.184943 13.763 0.466874C10.9409 1.11869 8.32317 2.43385 6.13594 4.29876C3.94871 6.16367 2.25775 8.52225 1.2091 11.1708C0.160448 13.8193 -0.214352 16.6782 0.117072 19.5004C0.448496 22.3226 1.47618 25.0233 3.11135 27.3693C4.74652 29.7153 6.94002 31.6359 9.50238 32.9654C12.0647 34.2949 14.9189 34.9932 17.8184 35C32.8217 35 36.126 21.2625 34.6972 14.4375H17.8184Z" fill="#D9D9D9"/>
</svg>
