<svg width="35" height="35" viewBox="0 0 35 35" fill="none" xmlns="http://www.w3.org/2000/svg">
<path d="M17.5 0C7.875 0 0 7.875 0 17.5C0 27.125 7.875 35 17.5 35C27.125 35 35 27.125 35 17.5C35 7.875 27.125 0 17.5 0ZM26.075 10.675L23.1 25.025C22.925 26.075 22.225 26.25 21.525 25.725L16.975 22.225C15.925 23.275 14.875 24.15 14.7 24.5C14.35 24.675 14.175 25.025 13.825 25.025C13.3 25.025 13.3 24.675 13.125 24.325L11.55 19.075L6.825 17.5C5.775 17.15 5.775 16.45 7 15.925L24.85 9.1C25.55 8.925 26.425 9.275 26.075 10.675ZM21.875 12.25L11.9 18.55L13.475 23.8L13.825 20.3L22.4 12.6C22.925 12.075 22.575 12.075 21.875 12.25Z" fill="#D9D9D9"/>
</svg>
