<svg width="55" height="16" viewBox="0 0 55 16" fill="none" xmlns="http://www.w3.org/2000/svg">
<path d="M39.6787 7.04395V15.5821H44.4221V10.5225H49.798C52.059 10.5066 53.9801 9.0599 54.7075 7.04395H39.6787Z" fill="#37A72E"/>
<path d="M39.0464 0.00805664C39.3231 3.49447 42.6277 6.25356 46.6596 6.25356C46.6754 6.25356 54.9052 6.25356 54.9052 6.25356C54.9685 5.93734 55.0001 5.6053 55.0001 5.26535C55.0001 2.37186 52.6679 0.0317738 49.7823 0.00805664H39.0464Z" fill="url(#paint0_linear_286_51)"/>
<path d="M32.0261 6.1666C32.0815 6.07173 32.1684 6.01639 32.2791 6.01639C32.4372 6.01639 32.5558 6.14289 32.5637 6.29309V15.5032H37.3071V0.00805664H32.5637C31.9629 0.0317738 31.283 0.466587 31.03 1.01208L27.259 9.10753C27.2511 9.13915 27.2353 9.17077 27.2195 9.20239C27.1641 9.28145 27.0693 9.33679 26.9586 9.33679C26.7847 9.33679 26.6423 9.19449 26.6423 9.02056V0.00805664H21.8989V15.5032H26.6423C27.2353 15.4716 27.8994 15.0368 28.1523 14.4992L32.0261 6.19032C32.0182 6.18241 32.0261 6.17451 32.0261 6.1666Z" fill="#37A72E"/>
<path d="M14.3172 6.43525L11.5423 15.5031H8.12707L5.36007 6.42734C5.33635 6.28504 5.20986 6.17436 5.05175 6.17436C4.87782 6.17436 4.74342 6.31666 4.74342 6.48268V15.4952H0V0H4.07144H5.28101C6.15064 0 7.0677 0.679891 7.32068 1.50999L9.62915 9.05994C9.74774 9.43941 9.92957 9.43151 10.0482 9.05994L12.3566 1.50999C12.6096 0.671986 13.5267 0 14.3963 0H15.6059H19.6773V15.4952H14.9339V6.48268C14.9339 6.48268 14.9339 6.48268 14.9339 6.47477C14.9339 6.30085 14.7916 6.16645 14.6256 6.16645C14.4674 6.17436 14.341 6.28504 14.3172 6.43525Z" fill="#37A72E"/>
<defs>
<linearGradient id="paint0_linear_286_51" x1="39.0483" y1="3.13082" x2="54.9991" y2="3.13082" gradientUnits="userSpaceOnUse">
<stop stop-color="#00A0E5"/>
<stop offset="1" stop-color="#0077C3"/>
</linearGradient>
</defs>
</svg>
