<svg width="32" height="32" viewBox="0 0 32 32" fill="none" xmlns="http://www.w3.org/2000/svg">
<path d="M28.25 6.16992C28.9923 7.14476 29.6261 8.19764 30.14 9.30991L15.79 19.8999L9.79004 16.1099V11.5799L15.79 15.3399L28.25 6.16992Z" fill="#21A038"/>
<path d="M3.63001 15.7802C3.61458 15.5738 3.61458 15.3666 3.63001 15.1602L6.34204e-07 14.9702C6.34204e-07 15.2202 6.34204e-07 15.5002 6.34204e-07 15.7502C-0.000587684 17.8221 0.408144 19.8737 1.2027 21.7871C1.99725 23.7006 3.16198 25.4382 4.63001 26.9002L7.20999 24.3202C6.07601 23.2063 5.17605 21.8771 4.56299 20.4106C3.94992 18.944 3.63614 17.3697 3.64002 15.7802H3.63001Z" fill="url(#paint0_linear_283_17)"/>
<path d="M15.7401 3.67981C15.9465 3.66439 16.1537 3.66439 16.3601 3.67981L16.5501 0.0498053H15.7701C13.6982 0.049217 11.6467 0.457948 9.73325 1.2525C7.81979 2.04706 6.08214 3.21179 4.62012 4.67981L7.20013 7.25983C8.31637 6.129 9.64606 5.23109 11.1121 4.61826C12.5781 4.00542 14.1512 3.68985 15.7401 3.68982V3.67981Z" fill="url(#paint1_linear_283_17)"/>
<path d="M15.7402 27.9101C15.5338 27.9255 15.3266 27.9255 15.1202 27.9101L14.9302 31.5401H15.7102C17.782 31.5407 19.8336 31.132 21.7471 30.3374C23.6605 29.5428 25.3981 28.3781 26.8602 26.9101L24.2502 24.3301C23.1405 25.4696 21.812 26.3732 20.3445 26.9866C18.877 27.6001 17.3007 27.9108 15.7102 27.9001L15.7402 27.9101Z" fill="url(#paint2_linear_283_17)"/>
<path d="M22.57 5.78L25.64 3.51001C22.8354 1.24094 19.3376 0.00204503 15.73 0V3.63C18.1693 3.64506 20.5482 4.39041 22.56 5.76999L22.57 5.78Z" fill="url(#paint3_linear_283_17)"/>
<path d="M31.5201 15.7802C31.5156 14.8315 31.4319 13.8849 31.2701 12.9502L27.8901 15.4702V15.7802C27.898 17.4779 27.5455 19.158 26.856 20.7094C26.1665 22.2609 25.1556 23.6484 23.8901 24.7802L26.3401 27.4802C27.9751 26.0018 29.2812 24.1963 30.1735 22.1807C31.0659 20.1651 31.5247 17.9845 31.5201 15.7802Z" fill="#21A038"/>
<path d="M15.7402 27.9101C14.0424 27.918 12.3622 27.5656 10.8108 26.876C9.25932 26.1865 7.87185 25.1756 6.74002 23.9102L4.04004 26.3602C5.51289 27.9974 7.31432 29.3059 9.32684 30.2001C11.3394 31.0944 13.5178 31.5544 15.72 31.5502L15.7402 27.9101Z" fill="url(#paint4_linear_283_17)"/>
<path d="M7.64009 6.78009L5.19008 4.08008C3.5503 5.55518 2.24038 7.35986 1.34603 9.37604C0.451673 11.3922 -0.00697169 13.5745 8.00989e-05 15.7801L3.63001 15.7802C3.6272 14.0833 3.98202 12.4046 4.67122 10.8539C5.36042 9.30324 6.36861 7.91514 7.63008 6.78009H7.64009Z" fill="url(#paint5_linear_283_17)"/>
<defs>
<linearGradient id="paint0_linear_283_17" x1="14.5915" y1="22.6876" x2="8.15204" y2="-7.76763" gradientUnits="userSpaceOnUse">
<stop offset="0.14" stop-color="#F2E913"/>
<stop offset="0.3" stop-color="#E7E518"/>
<stop offset="0.58" stop-color="#CADB26"/>
<stop offset="0.89" stop-color="#A3CD39"/>
</linearGradient>
<linearGradient id="paint1_linear_283_17" x1="5.10029" y1="31.552" x2="32.2614" y2="25.2559" gradientUnits="userSpaceOnUse">
<stop offset="0.06" stop-color="#0FA8E0"/>
<stop offset="0.54" stop-color="#0099F9"/>
<stop offset="0.92" stop-color="#0291EB"/>
</linearGradient>
<linearGradient id="paint2_linear_283_17" x1="1.75541" y1="30.2969" x2="32.4402" y2="26.1412" gradientUnits="userSpaceOnUse">
<stop offset="0.12" stop-color="#A3CD39"/>
<stop offset="0.28" stop-color="#86C339"/>
<stop offset="0.87" stop-color="#21A038"/>
</linearGradient>
<linearGradient id="paint3_linear_283_17" x1="-3.89692" y1="26.4694" x2="27.6612" y2="32.0118" gradientUnits="userSpaceOnUse">
<stop offset="0.06" stop-color="#0291EB"/>
<stop offset="0.79" stop-color="#0C8ACB"/>
</linearGradient>
<linearGradient id="paint4_linear_283_17" x1="2.18082" y1="13.6132" x2="31.123" y2="20.7357" gradientUnits="userSpaceOnUse">
<stop offset="0.13" stop-color="#F2E913"/>
<stop offset="0.3" stop-color="#EBE716"/>
<stop offset="0.53" stop-color="#D9E01F"/>
<stop offset="0.8" stop-color="#BBD62D"/>
<stop offset="0.98" stop-color="#A3CD39"/>
</linearGradient>
<linearGradient id="paint5_linear_283_17" x1="2.76468" y1="16.9654" x2="6.77754" y2="6.50581" gradientUnits="userSpaceOnUse">
<stop offset="0.07" stop-color="#A3CD39"/>
<stop offset="0.26" stop-color="#81C55F"/>
<stop offset="0.92" stop-color="#0FA8E0"/>
</linearGradient>
</defs>
</svg>
