<svg width="36" height="32" viewBox="0 0 36 32" fill="none" xmlns="http://www.w3.org/2000/svg">
<path d="M35.5245 14.9773L36 13.4897L34.4533 13.5385C33.7289 13.5119 33.0311 13.2684 32.4445 12.839H32.6533C33.5956 12.8346 34.4578 12.2988 34.8755 11.4577L35.5556 10.01C35.0222 10.0144 34.4889 9.98337 33.96 9.91696C33.4533 9.79746 33 9.523 32.6578 9.13338C32.1955 8.64198 31.5556 8.36304 30.88 8.35862C30.6178 8.35862 30.3555 8.4029 30.1022 8.48254C30.1378 8.36304 30.1689 8.24353 30.1911 8.11954C30.2978 7.25624 30.0534 6.38404 29.5155 5.69784L28.3422 4.25899L27.6222 5.94132C27.5067 6.18041 27.3333 6.38853 27.1111 6.53899C26.9867 5.93691 26.6933 5.38794 26.2578 4.95407C25.5289 4.2103 24.5289 3.79414 23.4844 3.80299C23.3022 3.80299 23.12 3.81628 22.9423 3.84284L21.5378 4.11732C21.6578 3.64804 21.8489 3.20089 22.1067 2.78915L22.88 1.58937L20.9333 1.7709L20.3111 0.442726L19.1111 1.09353L18 0L16.8889 1.09353L15.6889 0.473716L15.0667 1.7709L13.12 1.54953L13.8933 2.75374C14.1511 3.16547 14.3422 3.61262 14.4622 4.08191L13.1289 3.8207H13.0845C12.8978 3.79414 12.7111 3.78086 12.5244 3.78086C11.48 3.772 10.48 4.18816 9.7511 4.93193C9.31109 5.37023 9.00892 5.92809 8.88887 6.53899C8.67559 6.39294 8.50224 6.19372 8.3867 5.95905L7.66223 4.26342L6.48004 5.7067C5.95114 6.39294 5.71556 7.26065 5.81781 8.11954C5.84003 8.24353 5.87111 8.36304 5.90669 8.48254C5.65332 8.4029 5.39109 8.35862 5.12892 8.35862C4.45333 8.36304 3.81332 8.64198 3.35109 9.13338C3.01333 9.51852 2.56446 9.79305 2.06222 9.91696C1.52889 9.99668 0.986701 10.0276 0.44444 10.01L1.10667 11.4798C1.52446 12.321 2.38669 12.8567 3.32887 12.8611H3.5378C2.96003 13.2817 2.27115 13.5252 1.55554 13.5562L0 13.4897L0.475521 14.9773C0.831147 16.1417 1.84 16.9961 3.05335 17.1511C2.92887 17.9347 2.43113 18.6121 1.72003 18.9663L0.528898 19.4488L1.16891 20.5601C1.6978 21.3791 2.60891 21.8661 3.58224 21.8573C3.83555 21.8573 4.08892 21.8306 4.33779 21.7775C4.40003 22.0476 4.47998 22.3176 4.56887 22.5789C4.79109 23.1633 4.80445 23.8008 4.61332 24.3941L4.03554 25.6026L5.32892 25.9436C5.61781 26.0188 5.91998 26.0543 6.2178 26.0543C6.43109 26.0543 6.64002 26.0321 6.84888 25.9834C7 25.948 7.15113 25.9037 7.29332 25.8461C7.4578 26.1428 7.66666 26.4173 7.90224 26.6608C8.72889 27.5064 9.90222 27.9358 11.3911 27.9358H12.4533L10.2622 28.8434L11.9244 29.6624C12.5956 29.99 13.28 30.2867 13.9778 30.5479L13.7778 31.1235L14.3511 31.3846C15.3022 31.7565 16.3111 31.9646 17.3334 32H18.6978C19.7156 31.9646 20.72 31.7521 21.6667 31.3802L22.2222 31.1235L22.0266 30.5479C22.7333 30.2778 23.4267 29.9723 24.1022 29.6315L25.7334 28.8434L23.5467 27.958H24.6133C26.1022 27.958 27.28 27.5152 28.1023 26.6829C28.3422 26.4394 28.5467 26.1649 28.7111 25.8683C28.8534 25.9259 29.0044 25.9701 29.1556 26.0056C29.3645 26.0543 29.5733 26.0764 29.7867 26.0764C30.0844 26.0764 30.3867 26.0365 30.6756 25.9657L31.9733 25.6248L31.4089 24.4383C31.1955 23.8362 31.2045 23.1765 31.4311 22.5789C31.5244 22.3088 31.6 22.0344 31.6622 21.7598C31.9112 21.813 32.1689 21.8395 32.4223 21.8395C33.4045 21.8484 34.32 21.3437 34.84 20.5114L35.4711 19.4134L34.2978 18.9353C33.5867 18.5811 33.0889 17.9037 32.9644 17.1201C34.1778 16.9607 35.1867 16.1107 35.5423 14.9419L35.5245 14.9773Z" fill="white"/>
<path d="M22.9941 19.5994H13.2832V23.6731C13.2832 25.3479 14.3636 26.3889 15.9618 26.3889C17.2971 26.3889 17.6491 26.4477 18.1427 27C18.4543 26.6243 18.8953 26.4116 19.3566 26.4206V26.3572L19.6641 25.2981L19.1422 24.6599C18.9317 24.7323 18.7132 24.7595 18.4948 24.7459C18.167 24.7414 17.8433 24.7051 17.5236 24.6327H17.4225C17.378 24.6327 17.378 24.6327 17.3659 24.6599L17.1959 24.9767L16.9855 24.9224L16.0508 24.678L15.9214 24.9133V24.9405L16.0347 25.0808L15.9861 25.2619C15.9011 25.4837 15.7798 25.6828 15.626 25.8548L15.3913 26.1355L15.1769 25.8367L15.019 25.6149C14.8491 25.3659 14.8087 25.0401 14.9058 24.7459L14.6428 24.8681L14.5254 24.5784L14.4607 24.3747C14.2948 23.9447 14.4202 23.4468 14.756 23.1752L15.5086 22.7226L16.2248 22.881C16.2248 22.8041 16.2693 22.528 16.2896 22.4601H16.2491L15.8445 22.6321L15.4399 22.3243C15.3589 22.2338 15.3549 22.0844 15.4399 21.9893L15.8242 21.3375L14.8491 19.9797L16.3098 20.6224L16.6132 20.215L16.8439 20.4594C16.9046 20.5273 16.9451 20.6088 16.9653 20.7039C17.3699 20.8849 18.1185 21.4145 18.1792 22.2745L17.9485 22.3786C17.9768 22.4239 18.0133 22.4601 18.0578 22.4827L19.126 22.6004L19.2231 22.5687C19.4052 22.4918 19.5993 22.451 19.7936 22.4465C19.9878 22.4465 20.178 22.4963 20.352 22.5913C20.4288 22.5596 20.5138 22.5415 20.5948 22.537H20.6473C21.2179 22.537 21.5051 23.0168 21.7317 23.397L21.8491 23.5872C22.0473 23.904 22.3103 24.3657 22.3224 24.3838L22.4398 24.5875L22.2941 24.7775C22.1606 24.9767 21.9502 25.0899 21.7277 25.0899C21.6629 25.0944 21.5982 25.0944 21.5334 25.0899C21.4768 25.0763 21.4202 25.0582 21.3635 25.0311C21.3635 25.0944 21.3635 25.1714 21.3311 25.2347L21.1652 26.3029C22.2658 26.054 23.0427 24.9496 22.9982 23.6912L22.9941 19.5994ZM13.2711 19.269H20.8335C20.5259 18.9069 20.4207 18.3864 20.5583 17.9111C20.4572 17.8568 20.36 17.7843 20.2751 17.7029C19.9797 17.9473 19.0612 18.6806 18.8427 18.8661L18.7942 18.9024L15.8242 18.314H15.7636C15.6664 18.3185 15.5694 18.3185 15.4723 18.314C15.4439 18.4633 15.3266 18.5674 15.1931 18.5674H15.1445C14.9867 18.5358 14.8774 18.3682 14.9018 18.1917V18.1193C14.5173 17.8116 14.3352 17.2774 14.4364 16.7614V16.7025L14.4809 16.6664C14.4809 16.6664 14.5375 16.6211 14.6144 16.5713L14.4 16.5351C14.3191 16.517 14.2665 16.4355 14.2786 16.345C14.2907 16.2545 14.3636 16.1956 14.4445 16.2092H14.4486L14.9625 16.2998L15.011 14.2765L15.7757 13.3712L16.2532 14.4937L15.7515 16.4401L16.2046 16.5215C16.2855 16.5396 16.3382 16.6211 16.326 16.7116C16.3139 16.7931 16.2532 16.8474 16.1803 16.8474H16.1561L15.7878 16.7795V16.8112C15.8283 16.8927 15.889 16.9561 15.9659 16.9967L18.2277 17.0375L18.8063 16.3993C18.3653 16.2273 18.0497 15.7928 17.9971 15.2722C17.7138 15.1501 17.4832 14.9147 17.3537 14.6114C17.2445 14.3262 17.2243 14.0049 17.3012 13.7062C16.9451 13.5477 16.6214 13.3078 16.3584 13H13C13.1618 13.4436 13.2549 13.9144 13.2711 14.3896V19.269Z" fill="#FCE527"/>
<path d="M16.0609 21.2156C16.0077 21.2156 15.9589 21.255 15.9545 21.3074V21.3118C15.9501 21.3687 15.9944 21.4211 16.052 21.4255H16.0564C16.1185 21.4255 16.1628 21.3774 16.1628 21.3206C16.1628 21.2594 16.1185 21.2156 16.0609 21.2156ZM16.0565 21.2112C16.0609 21.2112 16.0609 21.2156 16.0609 21.2156C16.0653 21.2156 16.0653 21.2112 16.0698 21.2112H16.0565ZM23.3005 28.3827L22.6886 28.1509L22.8571 27.5256L23.0433 26.8435C22.2054 27.2676 21.3277 27.6087 20.4233 27.8623C19.9799 27.9847 19.6607 28.0416 19.6607 28.0416V28.4833C19.1155 28.5707 18.5657 28.6188 18.0116 28.6232H17.9627C17.4086 28.6188 16.8588 28.5707 16.3136 28.4833V28.046C16.3136 28.046 15.9899 27.9847 15.5466 27.8623C14.6422 27.6087 13.7644 27.2676 12.9265 26.8435L13.1083 27.5256L13.2812 28.1509L12.665 28.3827L12 28.6319C12.9132 29.0998 13.8664 29.489 14.8506 29.7951L14.6156 30.4248C15.684 30.8271 16.8278 31.0239 17.9716 30.9977H17.9982C19.142 31.0239 20.2858 30.8271 21.3542 30.4248L21.1237 29.7951C22.1035 29.489 23.0566 29.0998 23.9699 28.6319L23.3005 28.3827ZM12.7403 28.6713L13.7334 28.3434L13.4364 27.3813C14.0881 27.7005 14.762 27.9673 15.4579 28.1772L14.9703 29.489C14.2033 29.2879 13.4541 29.0124 12.7403 28.6713ZM18.0116 30.6872L17.9894 30.6697C17.014 30.6653 16.0431 30.5341 15.1033 30.2805L15.7018 28.68C16.4466 28.8637 17.2135 28.9643 17.9849 28.9686H18.0337C18.8051 28.9599 19.572 28.8637 20.3169 28.68L20.9153 30.2805C19.971 30.5429 18.9913 30.6784 18.0116 30.6872ZM21.035 29.5153V29.5021L20.5474 28.1903C21.2434 27.9804 21.9172 27.7137 22.569 27.3944L22.2719 28.3564L23.2783 28.6888C22.5601 29.0343 21.8064 29.3141 21.035 29.5153ZM17.9849 3.42256C18.9868 3.39632 19.971 3.69367 20.7867 4.26651C20.9153 3.61933 21.1591 2.99839 21.5093 2.43429L20.503 2.54798L19.9799 1.44166L18.9646 1.95766L17.9849 1L17.0051 1.95766L15.9899 1.44166L15.4668 2.54798L14.4604 2.43429C14.8106 2.99839 15.0545 3.61933 15.183 4.26651C15.9988 3.69367 16.9829 3.39632 17.9849 3.42256ZM15.4224 2.9328L15.7017 2.96341L15.8214 2.71416L16.1717 1.97077L16.8233 2.30311L17.0761 2.42992L17.28 2.24626L17.9849 1.54223L18.6898 2.24626L18.8937 2.44304L19.1464 2.31623L19.7937 1.98389L20.1484 2.72727L20.268 2.97652L20.5474 2.94591L20.8133 2.9153C20.7069 3.15581 20.6139 3.40506 20.5384 3.65869C18.9381 2.84971 17.0362 2.84971 15.4357 3.65869C15.3604 3.40506 15.2673 3.15581 15.1609 2.9153L15.4224 2.9328ZM31.1342 12.448L31.0144 12.3038C30.1898 11.2674 29.4051 10.2835 28.0042 9.83308C28.0619 9.78499 28.1195 9.74126 28.1815 9.70189C28.8465 9.33021 29.3164 8.69179 29.4672 7.95278C29.5426 7.28371 29.3519 6.61475 28.9352 6.08122L28.4919 5.53464L28.2125 6.18618C28.2125 6.22555 27.7205 7.27064 26.7274 7.27064H26.4348C26.488 6.58408 26.2353 5.90631 25.7432 5.41657C25.1448 4.81312 24.3201 4.47641 23.4645 4.48079C23.3049 4.48079 23.1453 4.4939 22.9901 4.51577L22.3118 4.64695L22.733 5.19356C23.0611 5.63084 23.3581 6.38732 23.0079 6.79401C22.8394 6.93834 22.6488 7.052 22.4404 7.13066C21.9971 7.33623 21.3587 7.62918 21.3587 8.36383C21.3587 8.84048 21.7355 9.339 22.4138 9.76313C24.4132 11.0138 25.6501 12.3038 26.1866 13.7555C27.0156 15.9682 25.9338 17.2276 24.8832 17.8922L24.4132 18.1896L24.8255 18.5613C25.1935 18.8718 25.6457 19.0642 26.1289 19.1123H26.5323C26.9446 19.1123 27.3526 19.0555 27.7471 18.9373C27.6496 19.1079 27.5299 19.2697 27.4013 19.4184C26.8028 20.1049 25.9161 20.481 24.9984 20.4329H24.6039L24.5729 20.8221C24.5684 21.3687 24.8123 21.8846 25.2334 22.2389C25.3443 22.3351 25.4683 22.4138 25.6013 22.475C24.9453 23.1046 24.5729 23.9661 24.5595 24.8713C24.5595 25.3654 24.4443 25.8552 24.227 26.3012L23.7837 26.9571H24.5729C25.8762 26.9571 26.8737 26.603 27.5653 25.899C27.9244 25.5273 28.1904 25.0768 28.3455 24.587C28.6027 24.8013 28.9042 24.95 29.2323 25.0243C29.3874 25.0593 29.547 25.0768 29.7066 25.0768C29.946 25.0768 30.1854 25.0462 30.4159 24.9937L30.9213 24.8626L30.6997 24.3991C30.4203 23.66 30.4203 22.8423 30.6997 22.1033C30.8637 21.6223 30.979 21.1237 31.041 20.6165C31.44 20.8176 31.8834 20.9183 32.3311 20.9139C33.067 20.9226 33.7542 20.5641 34.1532 19.9562L34.397 19.519L33.9537 19.3353C32.4686 18.7275 32.1405 17.0921 32.074 16.2087C32.2203 16.2393 32.3666 16.2568 32.5173 16.2612L32.6415 16.3443C34.2552 16.3443 34.796 14.722 34.8182 14.652L35 14.0791H34.3926C33.1158 14.0354 31.9232 13.4407 31.1342 12.448ZM32.6459 15.9026H32.5838C32.2602 15.907 31.941 15.8195 31.6661 15.6534C31.6661 15.6534 31.4312 18.815 33.8207 19.7945V19.8075C33.5059 20.2798 32.9651 20.5597 32.3932 20.5509C31.7459 20.5903 31.1208 20.3192 30.713 19.8251C30.7262 20.5684 30.6022 21.3118 30.3494 22.0114C30.0258 22.8554 30.0258 23.7912 30.3494 24.6352C30.1499 24.6833 29.9504 24.7095 29.7465 24.7095C29.6224 24.7095 29.4938 24.6964 29.3741 24.6658C28.7845 24.5259 28.3145 24.0973 28.1239 23.5332C28.1239 23.5332 28.217 26.5679 24.6304 26.5679H24.6039C24.8743 26.0607 25.0162 25.4966 25.0118 24.9238C25.1669 22.6805 26.7097 22.3613 26.7097 22.3613C26.2841 22.3088 25.8807 22.1601 25.526 21.924C25.2023 21.6573 25.0162 21.2637 25.0073 20.8483C26.0447 20.892 27.0466 20.4678 27.7249 19.6895C28.1328 19.2304 28.4032 18.6706 28.5185 18.0715C27.9466 18.4957 27.2417 18.71 26.5279 18.6793H26.1644C25.7787 18.64 25.4108 18.4914 25.1137 18.2421C26.4792 17.3675 27.4367 15.872 26.59 13.6025C25.9073 11.7834 24.2714 10.4235 22.6266 9.40023C22.0813 9.06784 21.7532 8.69179 21.7532 8.36819C21.7532 7.60731 22.8483 7.58545 23.3005 7.05635C23.8192 6.46169 23.4955 5.49965 23.0433 4.92244C23.1719 4.90057 23.3049 4.89183 23.4335 4.89183C24.1739 4.88308 24.8876 5.17606 25.4018 5.7008C25.925 6.19053 26.1245 6.92956 25.925 7.61174L26.1644 7.65983C26.3107 7.68605 26.457 7.6992 26.6077 7.70356H26.7052C28.0042 7.70356 28.5894 6.36109 28.5894 6.36109C28.5894 6.36109 29.9726 8.04023 27.9377 9.35207C27.5875 9.57514 27.4323 9.78935 27.4944 10.008L27.5254 10.1523L27.6717 10.1785C29.148 10.5721 29.8883 11.5779 30.8061 12.7192C31.675 13.808 32.9873 14.464 34.3926 14.512H34.4192C34.4192 14.512 33.9759 15.9026 32.6459 15.9026Z" fill="#222220"/>
<path d="M29.4012 9.87424C29.8903 10.1723 30.3139 10.5775 30.6459 11.0619C30.8948 11.4717 31.2486 11.7977 31.6678 11.9933C31.825 12.0492 31.9954 12.0771 32.1614 12.0771C32.8295 12.0771 33.441 11.672 33.7467 11.0386L34 10.4332L33.3842 10.3959C32.7203 10.2655 32.122 9.90225 31.681 9.35732C31.3534 8.98011 30.8948 8.76118 30.41 8.75653C30.0344 8.76118 29.6719 8.88232 29.3575 9.09654L28.7897 9.52032L29.4012 9.87424ZM30.4231 9.20832L30.41 9.21296C30.7812 9.21296 31.1306 9.38525 31.3796 9.67868C31.8905 10.3027 32.5893 10.7172 33.358 10.8523C33.1222 11.3227 32.6636 11.616 32.1614 11.6207C32.039 11.6207 31.9168 11.5975 31.7988 11.5555C31.0914 11.2994 30.8424 10.1584 29.6152 9.46911C29.8554 9.30146 30.1349 9.21296 30.4231 9.20832ZM29.6894 15.8774L29.6807 15.8681C29.3226 12.7943 27.2305 10.5729 24.9028 9.22696C24.6888 9.10118 24.4878 8.99875 24.2957 8.90097C25.2565 9.11054 26.2567 8.85904 27.0297 8.21632C27.0297 8.21632 25.6801 9.27354 22.9199 8.31411C23.6843 8.84503 25.1692 9.59018 26.5274 10.801C29.9165 13.9772 27.4927 17.079 27.4927 17.079C28.5059 16.0544 28.8596 14.4895 28.4054 13.0831C29.1216 14.3545 29.4667 15.8262 29.3925 17.3072C29.2963 19.7475 28.0254 21.8805 26.7152 23.5804C26.3222 24.1159 26.0514 24.7447 25.9378 25.4153C26.1605 24.7493 26.4969 24.1346 26.9336 23.6037C28.353 21.8293 29.554 19.9897 29.7244 17.3397C29.8729 17.8054 30.4756 19.1607 31.4364 19.6683C31.4364 19.6683 30.231 18.8952 29.6894 15.8774ZM11.6084 27.2363C11.3988 26.7612 11.2852 26.2397 11.2809 25.7134C11.2678 24.7493 10.8965 23.8319 10.2501 23.1612C10.3812 23.096 10.5035 23.0122 10.6127 22.9097C11.0276 22.5325 11.2678 21.9829 11.2634 21.4008L11.2372 20.9863H10.8441C9.94443 21.0329 9.07096 20.637 8.48137 19.9059C8.35471 19.7475 8.24117 19.5752 8.14069 19.3936C8.5294 19.5193 8.93124 19.5799 9.33736 19.5799H9.73484C10.2108 19.5286 10.6607 19.3237 11.0232 18.993L11.4293 18.5972L10.9664 18.2805C9.92695 17.5726 8.86573 16.2313 9.68239 13.8748C10.2108 12.3426 11.4293 10.9594 13.4165 9.62746C14.0847 9.16175 14.4516 8.64482 14.4516 8.13718C14.4516 7.35475 13.8358 7.04276 13.3859 6.82382C13.1807 6.73997 12.9929 6.6189 12.827 6.46524C12.4776 6.0321 12.7701 5.20777 13.0977 4.76068L13.5344 4.17853L12.8618 4.03881C12.709 4.01087 12.5518 4.00156 12.3946 4.00156C11.5429 3.97361 10.7218 4.32291 10.1191 4.96094C9.62566 5.47788 9.36797 6.20437 9.416 6.94025H9.15396C8.17131 6.94025 7.70831 5.8318 7.6909 5.78523L7.41573 5.09134L6.97899 5.67353C6.57279 6.24167 6.38503 6.95425 6.45925 7.66675C6.60775 8.45382 7.06634 9.13382 7.72144 9.52968C7.7826 9.57153 7.84376 9.6181 7.89613 9.66939C6.51605 10.1351 5.74299 11.197 4.93068 12.3007L4.81272 12.459C4.03538 13.5162 2.85619 14.1496 1.59837 14.1962H1L1.18347 14.8062C1.18347 14.8807 1.73374 16.6086 3.32782 16.6086H3.40646C3.55497 16.6039 3.69905 16.5853 3.8432 16.5527C3.77769 17.4841 3.45449 19.2352 1.98708 19.8826L1.55034 20.0782L1.79055 20.5439C2.18361 21.1912 2.86055 21.5732 3.58551 21.5638C4.0266 21.5684 4.45898 21.4614 4.85204 21.2472C4.9132 21.7874 5.02673 22.3183 5.18837 22.8306C5.46347 23.6177 5.46347 24.4885 5.18837 25.2756L4.97 25.7692L5.46782 25.9089C5.69497 25.9649 5.93082 25.9974 6.16667 25.9974C6.32388 25.9974 6.48109 25.9788 6.63394 25.9416C6.95714 25.8624 7.25416 25.7041 7.50743 25.4759C7.66028 25.9974 7.92232 26.4772 8.27614 26.873C8.96178 27.6228 9.94443 27.9954 11.2241 28H12.0015L11.6084 27.2363ZM11.2328 27.4971C7.6996 27.4971 7.78695 24.265 7.78695 24.265C7.59913 24.8657 7.1362 25.3222 6.5553 25.4712C6.43741 25.5038 6.31075 25.5178 6.1885 25.5178C5.98755 25.5178 5.79102 25.4898 5.59891 25.4386C5.91769 24.5397 5.91769 23.5431 5.59891 22.6443C5.34993 21.8992 5.23204 21.1074 5.2451 20.3157C4.84333 20.8419 4.22755 21.1307 3.58986 21.0888H3.56803C3.00027 21.0981 2.46749 20.7954 2.15735 20.2924C4.51143 19.2492 4.27993 15.882 4.27993 15.882C4.00911 16.059 3.69469 16.1522 3.37585 16.1475H3.32782C2.01762 16.1475 1.58089 14.6665 1.58089 14.6665H1.60707C2.99157 14.62 4.28864 13.9214 5.14469 12.7617C6.04435 11.5462 6.7781 10.475 8.23246 10.0559L8.37654 10.028L8.40716 9.87432C8.4464 9.63675 8.29355 9.40853 7.97035 9.17568C5.96571 7.77854 7.32838 5.99016 7.32838 5.99016C7.32838 5.99016 7.89613 7.41997 9.1845 7.41997H9.24566C9.39416 7.41533 9.53824 7.40132 9.68239 7.3734L9.91824 7.32218C9.71736 6.59559 9.91824 5.80852 10.4336 5.28695C10.9402 4.72808 11.6433 4.41605 12.3727 4.42536C12.4994 4.42536 12.6304 4.43468 12.757 4.45796C12.3203 5.07737 11.9971 6.10195 12.5081 6.73068C12.9448 7.27561 14.028 7.2989 14.028 8.12782C14.028 8.47246 13.7266 8.87296 13.1894 9.23161C11.5648 10.3214 9.95321 11.7697 9.28498 13.7072C8.45083 16.1242 9.39416 17.7309 10.7393 18.6485C10.4467 18.9092 10.0842 19.0722 9.70423 19.1142H9.34171C8.63858 19.1467 7.94416 18.9185 7.38076 18.4668C7.49437 19.1048 7.76076 19.7009 8.15818 20.1899C8.82641 21.0142 9.81777 21.4707 10.8397 21.4241C10.831 21.8665 10.6476 22.2857 10.3288 22.5698C9.9794 22.8212 9.58191 22.9796 9.16266 23.0355C9.16266 23.0355 10.6869 23.3662 10.8529 25.7646C10.8485 26.3746 10.9882 26.9754 11.2546 27.5157L11.2328 27.4971Z" fill="#222220"/>
<path d="M2.84806 12.817H2.85253C3.02009 12.817 3.19211 12.7915 3.35088 12.7404C3.77435 12.5617 4.1316 12.2638 4.38297 11.8893C4.71377 11.4468 5.14164 11.0766 5.63559 10.8042L6.25308 10.4851L5.6797 10.0979C5.36217 9.90215 4.99606 9.79145 4.62116 9.78721C4.1316 9.79145 3.66849 9.99149 3.3377 10.3404C2.89664 10.8341 2.28795 11.1702 1.62196 11.2893L1 11.3192L1.25146 11.8724C1.5602 12.4511 2.17328 12.8128 2.84806 12.817ZM3.64203 10.6298C3.88901 10.3617 4.24186 10.2043 4.61676 10.2043C4.90345 10.2085 5.18574 10.2936 5.42833 10.4425C4.1801 11.0851 3.91987 12.1149 3.22304 12.3489C3.1083 12.3872 2.98485 12.4085 2.86132 12.4085C2.34971 12.4085 1.8822 12.1362 1.64401 11.7022C2.42026 11.5787 3.12595 11.2 3.64203 10.6298ZM5.65773 17.617C5.58278 16.2638 5.92683 14.9191 6.65458 13.7575C6.19586 15.0425 6.55311 16.4724 7.57641 17.4085C7.57641 17.4085 5.12406 14.5745 8.55114 11.6723C9.92282 10.566 11.4181 9.88511 12.19 9.4C9.40241 10.2766 8.03952 9.31065 8.03952 9.31065C8.82017 9.8979 9.82582 10.1276 10.7961 9.93615C10.6021 10.0256 10.3992 10.1234 10.1831 10.234C7.83218 11.4681 5.7063 13.4978 5.35785 16.3064V16.2851C4.81092 19.0426 3.59361 19.7489 3.59361 19.7489C4.55947 19.2893 5.17256 18.0468 5.31813 17.6213C5.4813 20.0468 6.70748 21.7276 8.14092 23.3447C8.57759 23.8297 8.92164 24.3915 9.14657 25C9.02751 24.3915 8.75401 23.817 8.35266 23.3319C7.02948 21.7787 5.75041 19.8298 5.65773 17.617ZM16.5872 12.4936C16.7416 12.3489 16.9577 12.2809 17.1739 12.3064V13.1106C17.1695 13.3106 17.1165 13.5021 17.0151 13.6766H17.8487C17.7472 13.5021 17.6943 13.3106 17.6899 13.1106V12.3064C17.9016 12.2809 18.1177 12.3489 18.2721 12.4936V11.9362H16.5872V12.4936ZM16.2388 8.63405H16.23C16.358 8.74043 16.5079 8.82554 16.6711 8.87657L16.777 8.92344V8.39577L15.7978 8C15.8463 8.2638 16.0051 8.4936 16.2388 8.63405ZM18.5633 8.62981L18.5589 8.63405C18.7927 8.4936 18.9514 8.2638 19 8L18.0208 8.39577V8.91912L18.1223 8.87233C18.2854 8.82129 18.4354 8.73619 18.5633 8.62981Z" fill="#222220"/>
<path d="M20.6862 5.59761C20.6862 4.75605 19.4022 4 17.9878 4C16.5734 4 15.2894 4.75605 15.2894 5.59761L15.318 5.80462L15.8845 9.40482L15.318 9.76933L13.8383 10.6964C13.8383 10.6964 13.5081 10.8854 13.3533 10.9979C12.7948 11.4479 12.6767 12.051 12.9986 12.312C13.0802 11.6999 13.5652 11.2499 14.1277 11.2679C14.5965 11.2815 15.0327 11.5424 15.2976 11.97C15.3791 12.078 15.4524 12.195 15.5176 12.312C15.6033 12.465 15.6889 12.6 15.7745 12.7305H12C12.318 13.3336 12.5014 14.0131 12.5421 14.7107V23.9677C12.5421 26.2179 14.1033 27.2755 15.803 27.2755C17.1074 27.2755 17.2826 27.208 18 28C18.7174 27.208 18.8927 27.2755 20.197 27.2755C21.8845 27.2755 23.4579 26.2089 23.4579 23.9677V14.7197C23.4986 14.0221 23.682 13.3426 24 12.7396H20.1848C20.2704 12.609 20.356 12.474 20.4416 12.321C20.5109 12.204 20.5843 12.087 20.6617 11.979C20.9307 11.5515 21.3668 11.2904 21.8356 11.2769C22.3981 11.259 22.8832 11.709 22.9647 12.321C23.2908 12.0645 23.1725 11.421 22.6101 11.0069C22.4592 10.8899 22.1291 10.7054 22.1291 10.7054L20.6617 9.75131L20.0951 9.38681L20.6617 5.78662L20.6862 5.59761ZM15.8356 6.01165L17.8247 6.75419V10.2014L16.3614 9.34629L15.8356 6.01165ZM12.8152 13.338H16.2432C16.5082 13.6441 16.8342 13.8871 17.193 14.0401C17.1155 14.3371 17.1359 14.6566 17.2459 14.9402C17.3764 15.2417 17.6087 15.4757 17.894 15.5972C17.947 16.1147 18.265 16.5467 18.7092 16.7178C18.4646 16.9923 18.2242 17.2488 18.1264 17.3523L15.8479 17.3119C15.7704 17.2713 15.7093 17.2083 15.6685 17.1273V17.0958L16.0394 17.1633H16.0639C16.1372 17.1633 16.1984 17.1093 16.2106 17.0283C16.2228 16.9383 16.1698 16.8573 16.0883 16.8393L15.6318 16.7583L16.1372 14.8232L15.6562 13.7071L14.8859 14.6072L14.837 16.6188L14.3193 16.5288C14.2378 16.5108 14.1644 16.5692 14.1481 16.6593V16.6638C14.1359 16.7538 14.1889 16.8348 14.2704 16.8528L14.4865 16.8888C14.409 16.9383 14.356 16.9743 14.3519 16.9833L14.3071 17.0193V17.0778C14.2052 17.5908 14.3927 18.1219 14.7758 18.4279V18.4999C14.7514 18.6754 14.8614 18.8419 15.0204 18.8734H15.0693C15.2038 18.8734 15.322 18.77 15.3505 18.6214C15.4484 18.6259 15.5422 18.6259 15.6399 18.6214H15.7011L18.6888 19.22L18.7378 19.1839C18.9742 18.9994 19.8831 18.2839 20.1807 18.0273C20.2663 18.1084 20.3641 18.1804 20.466 18.2344C20.3274 18.7069 20.4334 19.2245 20.7432 19.5845H13.0883V14.7197C13.072 14.2471 12.9782 13.7791 12.8152 13.338ZM19.9239 17.7889C19.6141 18.0409 18.8519 18.6529 18.5747 18.8689L15.8641 18.3469V18.2659C15.909 18.0634 15.9334 17.8564 15.9375 17.6494L18.2201 17.6898L18.265 17.6403C18.3016 17.5998 19.0231 16.8303 19.3899 16.3848C19.4878 16.5198 19.6019 16.6323 19.7324 16.7223C19.6671 17.0913 19.7364 17.4739 19.9239 17.7889ZM15.3954 17.2488V17.2623C15.4565 17.3883 15.5462 17.4964 15.6562 17.5683C15.6522 17.7528 15.6359 17.9328 15.6074 18.1129C15.6074 18.1534 15.6074 18.1939 15.5788 18.2344V18.2974C15.3913 18.2974 15.2079 18.2659 15.0285 18.2029C14.7024 18.0094 14.519 17.6133 14.572 17.2083C14.7188 17.0958 14.8859 17.0238 15.0612 16.9968C15.2119 16.9923 15.3465 17.0913 15.3954 17.2488ZM15.1142 16.6503L15.159 14.7466L15.5666 14.2966L15.8152 14.8682L15.3302 16.7223L15.1142 16.6503ZM19.9035 26.6769H19.5122L19.8179 25.5744C19.8668 25.4213 19.6141 25.2233 19.5082 25.0478C19.7568 25.2143 20.0136 25.3628 20.2786 25.4978C20.2786 25.5338 19.9035 26.6769 19.9035 26.6769ZM20.9511 25.4438L20.9185 25.4124L20.7065 26.6274C20.572 26.6274 20.4293 26.6589 20.2989 26.6679L20.5231 25.4978C20.5883 25.1513 19.7445 25.0478 19.3288 24.3593C19.0557 24.6113 18.7051 24.7283 18.3546 24.6878C18.0449 24.6833 17.7392 24.6473 17.4375 24.5798C17.3845 24.5753 17.3315 24.5753 17.2785 24.5798C17.1522 24.5708 17.0299 24.6428 16.9647 24.7643L16.9036 24.8768L15.7418 24.5663L15.4647 25.0973C15.4199 25.1693 15.428 25.2683 15.4851 25.3313L15.5625 25.4258C15.4851 25.5924 15.3872 25.7454 15.269 25.8758L15.0979 25.6419C14.9674 25.4078 14.9796 25.1063 15.1264 24.8858L15.5829 24.0352L16.5571 24.1973L16.4062 23.8147C16.2024 23.3107 16.5122 22.6671 16.5448 22.2982C16.5448 22.4107 16.4389 22.4332 16.3329 22.4332H16.0517C16.0313 22.4287 16.0068 22.4287 15.9864 22.4332L15.7214 22.6087L15.5136 22.3971C15.481 22.3296 15.4932 22.2487 15.5422 22.1991L16.0231 21.6006L15.4524 20.867L16.2677 21.3171L16.5122 20.9931C16.5775 21.0651 16.5489 21.2541 16.5489 21.2541C17.1399 21.4161 17.5517 22.0101 17.5354 22.6852V22.8157C17.6169 22.9597 17.7473 23.0587 17.894 23.0992L18.9987 23.2207C19.2188 23.1442 19.443 23.0947 19.6712 23.0632C19.8668 23.0632 20.0625 23.1307 20.2255 23.2477C20.303 23.1892 20.3968 23.1532 20.4905 23.1487H20.5272C21.0204 23.1487 21.2282 23.6437 21.4932 24.0488C21.6929 24.3593 21.962 24.8273 21.962 24.8273C21.8845 24.9533 21.7582 25.0298 21.6196 25.0298C21.5706 25.0343 21.5258 25.0343 21.4769 25.0298C20.947 24.9218 20.8696 23.7157 20.5679 23.6212H20.5191C20.462 23.6212 20.409 23.6572 20.3805 23.7157C20.5191 24.1252 20.4375 24.2918 20.5883 24.6158C20.6983 24.8093 20.8369 24.9848 20.9959 25.1333C20.9959 25.1333 20.9755 25.3133 20.9511 25.4438ZM15.0123 24.2648H15.0041L15.053 24.4043C15.0204 24.5258 14.6454 24.7013 14.6454 24.7013L14.5638 24.5033C14.4579 24.2198 14.5353 23.8957 14.7595 23.7112L15.375 23.2972L16.0313 23.4502C16.0272 23.5943 16.0679 23.7337 16.1454 23.8507L15.4565 23.7068L15.0489 24.0218C14.9837 24.0848 14.9714 24.1838 15.0123 24.2648ZM22.8954 23.9722C22.9402 25.2233 22.1535 26.3214 21.0407 26.5644L21.2282 25.4754C21.2282 25.4124 21.2486 25.3358 21.2568 25.2728C21.3139 25.2999 21.371 25.3178 21.428 25.3313C21.4932 25.3358 21.5584 25.3358 21.6236 25.3313C21.8478 25.3313 22.0598 25.2188 22.1943 25.0208L22.341 24.8318L22.2187 24.6473C22.2187 24.6473 21.9457 24.1702 21.7419 23.8552L21.6277 23.6662C21.3995 23.2882 21.1101 22.8112 20.5353 22.8112H20.4824C20.4008 22.8157 20.3153 22.8337 20.2378 22.8652C20.0625 22.7707 19.8709 22.7212 19.6753 22.7212C19.4796 22.7257 19.284 22.7662 19.1006 22.8427L19.0027 22.8742L17.9266 22.7571C17.8818 22.7346 17.8451 22.6987 17.8166 22.6537L18.0489 22.5502C17.9837 21.6906 17.2337 21.164 16.8261 20.9885C16.8057 20.894 16.765 20.8131 16.7038 20.7456L16.4715 20.5025L16.1658 20.9076L14.6576 20.2235L15.6399 21.5736L15.2527 22.2216C15.1712 22.3116 15.1671 22.4601 15.2527 22.5546L15.6603 22.8607L16.0679 22.6896H16.1087C16.1087 22.7571 16.0639 23.0317 16.0435 23.1082L15.3342 22.9732L14.5761 23.4232C14.2256 23.7022 14.1033 24.2152 14.2867 24.6473L14.3723 24.8498L14.4905 25.1378L14.7555 25.0163C14.6576 25.3088 14.6984 25.6329 14.8695 25.8804L15.0285 26.1054L15.2405 26.4024L15.4769 26.1234C15.6318 25.9524 15.7541 25.7544 15.8397 25.5338L15.8886 25.3538L15.7745 25.2143V25.1873L15.9049 24.9533L16.8465 25.1963L17.0584 25.2503L17.1726 25.0433L17.2337 24.9308C17.2337 24.9083 17.2337 24.9038 17.2908 24.9038H17.3927C17.7147 24.9758 18.0408 25.0118 18.3669 25.0163C18.5869 25.0298 18.807 25.0028 19.019 24.9308L19.5407 25.5879L19.231 26.6409V26.7039C18.7663 26.6949 18.322 26.9064 18.0082 27.28C17.5068 26.7309 17.1522 26.6724 15.8112 26.6724C14.2011 26.6724 13.1128 25.6329 13.1128 23.9722V19.922H22.8954V23.9722ZM23.1604 13.338C22.9932 13.7746 22.9035 14.2427 22.8872 14.7197V17.7528C22.5326 17.6673 22.2677 17.3344 22.2432 16.9338V16.7943H22.1209C21.909 16.7763 21.7133 16.6683 21.5666 16.5017C21.3872 16.2722 21.2894 15.9842 21.2853 15.6827C21.1101 15.9977 21.1263 16.4028 21.3302 16.6998C21.4891 16.9203 21.7215 17.0688 21.9742 17.1048C22.0476 17.6269 22.4266 18.0319 22.8995 18.0994V19.5845H21.1875C20.7391 19.3325 20.5516 18.7429 20.7514 18.2344L20.8166 18.0723L20.6658 18.0094C20.1767 17.8203 19.9076 17.2398 20.0625 16.6908L20.0951 16.5558L19.981 16.4973C19.553 16.2228 19.3166 15.6872 19.3859 15.1472C19.1617 15.3992 19.1046 15.7817 19.2473 16.0967C19.1658 16.2003 19.0598 16.3217 18.9416 16.4567C18.5136 16.3578 18.2038 15.9483 18.1875 15.4667V15.3542L18.0937 15.3137C17.8451 15.2327 17.6413 15.0437 17.5231 14.7917C17.4456 14.5847 17.4293 14.3507 17.4823 14.1346C17.5639 14.1526 17.6454 14.1661 17.7269 14.1751C17.8084 14.1796 17.894 14.1796 17.9755 14.1751C18.6359 14.1751 19.2636 13.8601 19.7038 13.3201L23.1604 13.338ZM20.5191 10.2689L21.1875 10.7189L21.3546 10.8269C21.0082 10.9304 20.6943 11.1374 20.4457 11.4254L20.4172 11.4524C20.3601 11.5199 20.3071 11.5874 20.2541 11.6595L20.2215 11.7045C20.1685 11.7765 20.1196 11.853 20.0748 11.934L20.0503 11.9745C19.9932 12.0645 19.9402 12.1635 19.8872 12.2625C19.5163 13.0771 18.7949 13.6216 17.9755 13.7116C17.1563 13.6216 16.4348 13.0771 16.0639 12.2625C16.0109 12.1635 15.9579 12.069 15.9049 11.9745L15.8723 11.925L15.7418 11.691L15.7052 11.6415C15.6522 11.5695 15.5992 11.5019 15.5462 11.439L15.5176 11.4074C15.269 11.1194 14.9552 10.9124 14.6087 10.8089L14.7799 10.7009L15.4524 10.2509L16.1413 9.80087L17.9797 10.9034L19.8179 9.83683L20.5191 10.2689ZM19.6141 9.36879L18.1508 10.2194V6.75868L20.1359 6.01614L19.6141 9.36879ZM17.9837 6.39417L15.8071 5.43109C15.9905 4.94507 16.8465 4.53104 17.9837 4.53104C19.1209 4.53104 19.9769 4.94507 20.1603 5.43109L17.9837 6.39417Z" fill="#222220"/>
</svg>
