<svg width="46" height="44" viewBox="0 0 46 44" fill="none" xmlns="http://www.w3.org/2000/svg">
<path d="M16.5 23C22.8513 23 28 17.8513 28 11.5C28 5.14873 22.8513 0 16.5 0C10.1487 0 5 5.14873 5 11.5C5 17.8513 10.1487 23 16.5 23Z" fill="#EA001B"/>
<path d="M32.9289 23C39.2802 23 44.4289 17.8513 44.4289 11.5C44.4289 5.14873 39.2802 0 32.9289 0C26.5776 0 21.4289 5.14873 21.4289 11.5C21.4289 17.8513 26.5776 23 32.9289 23Z" fill="#FFA200" fill-opacity="0.8"/>
<path d="M19.9414 43.6746H16.1879L18.5338 29.2576H22.2877L19.9414 43.6746ZM13.0302 29.2576L9.45183 39.1738L9.02839 37.0384L7.76578 30.5557C7.76578 30.5557 7.61306 29.2576 5.98524 29.2576H0.0694166L0 29.5017C0 29.5017 1.80907 29.8781 3.92627 31.1496L7.18731 43.675H11.0982L17.0699 29.2576H13.0302ZM42.5535 43.6746H46L42.995 29.2572H39.9777C38.5844 29.2572 38.245 30.3316 38.245 30.3316L32.647 43.6746H36.5597L37.3422 41.5331H42.1138L42.5535 43.6746ZM38.4232 38.5748L40.3954 33.1796L41.5049 38.5748H38.4232ZM32.9404 32.7246L33.4761 29.6286C33.4761 29.6286 31.8232 29 30.1002 29C28.2375 29 23.8141 29.8141 23.8141 33.7728C23.8141 37.4974 29.0057 37.5436 29.0057 39.5C29.0057 41.4564 24.349 41.1059 22.8122 39.8722L22.2542 43.1093C22.2542 43.1093 23.9302 43.9234 26.4909 43.9234C29.0523 43.9234 32.9165 42.5971 32.9165 38.9875C32.9165 35.239 27.6783 34.89 27.6783 33.2602C27.6787 31.6301 31.3342 31.8395 32.9404 32.7246Z" fill="#2566AF"/>
<path d="M9 37L7.74103 30.3345C7.74103 30.3345 7.5888 29 5.96617 29H0.0691954L0 29.251C0 29.251 2.83432 29.8568 5.55292 32.1266C8.15236 34.2961 9 37 9 37Z" fill="#E6A540"/>
</svg>
