<svg width="59" height="21" viewBox="0 0 59 21" fill="none" xmlns="http://www.w3.org/2000/svg">
<path d="M16.9937 2.75313H3.02516L4.03145 0H18L16.9937 2.75313ZM16.4906 4.12969H2.51572L1.50943 6.88282H15.478L16.4906 4.12969ZM14.9811 8.24687H1.00629L0 11H13.956L14.9811 8.24687Z" fill="#009FDF"/>
<path d="M50.5973 18.1453H53.1221C53.4809 18.1889 53.8448 18.142 54.1817 18.0085C54.5185 17.8751 54.8179 17.6593 55.0536 17.3802C55.3999 16.9185 55.5744 16.3467 55.5459 15.7663C55.5696 15.3971 55.503 15.0276 55.3521 14.6909C55.2012 14.3543 54.9707 14.0611 54.6812 13.8375C54.2125 13.5251 53.6551 13.3804 53.0968 13.426H50.5973V18.1453ZM47.2834 20.9936V4.00671H58.1339L57.1807 6.855H50.5973V10.6163H53.2799C55.4449 10.6163 56.5685 11.1435 57.3449 11.8186C57.8999 12.3193 58.3365 12.9415 58.6218 13.6386C58.9071 14.3356 59.0338 15.0895 58.9923 15.8435C59.0349 16.6555 58.8777 17.4655 58.5349 18.1998C58.192 18.9342 57.6745 19.5696 57.0293 20.0484C55.9878 20.7814 54.8958 20.9871 52.6739 20.9871L47.2834 20.9936ZM37.6765 20.9936V6.84857H32.8541V4.00671H46.2419L45.2888 6.855H41.0219V21L37.6765 20.9936ZM24.3138 10.8092H26.2075C26.5947 10.8361 26.9838 10.8058 27.3626 10.7192C27.7565 10.591 28.0959 10.3303 28.3253 9.97985C28.5546 9.62939 28.6603 9.20995 28.625 8.79029C28.6775 8.3733 28.578 7.95116 28.3453 7.60393C28.1126 7.2567 27.7629 7.00851 27.3626 6.90644C26.949 6.80865 26.5242 6.7697 26.1001 6.79071H24.3138V10.8092ZM24.3138 13.7475V18.2031H26.624C27.2607 18.2773 27.9009 18.0976 28.4104 17.7016C28.6452 17.48 28.8291 17.2084 28.9491 16.9062C29.0691 16.6039 29.1223 16.2784 29.1047 15.9528C29.1147 15.4326 28.9598 14.923 28.6628 14.4997C28.1705 13.8568 27.5645 13.7346 26.5294 13.7346L24.3138 13.7475ZM29.6538 11.9536V12.0115C30.2166 12.2322 30.7425 12.5401 31.2129 12.9245C31.6884 13.3264 32.0642 13.8369 32.3099 14.4144C32.5555 14.9919 32.6641 15.6203 32.6268 16.2486C32.6268 18.5696 31.4149 20.2477 29.4266 20.7492C28.6341 20.9466 27.8177 21.0267 27.0028 20.9871H21V4.00671H26.34C27.1882 3.97513 28.0368 4.05509 28.8648 4.24461C30.7963 4.77183 32.065 6.12846 32.065 8.2695C32.0808 8.77996 31.9944 9.28835 31.811 9.76367C31.6276 10.239 31.3511 10.6713 30.9983 11.0342C30.6237 11.4217 30.1775 11.7298 29.6854 11.9408L29.6538 11.9536Z" fill="#0A2973"/>
</svg>
