<svg width="60" height="60" viewBox="0 0 60 60" fill="none" xmlns="http://www.w3.org/2000/svg">
<path d="M19.3758 17.3586C18.7192 17.086 17.9629 17.2365 17.4601 17.7407L13.6946 21.5157C13.0081 22.2038 13.0081 23.3197 13.6946 24.0079C14.3809 24.6961 15.494 24.6961 16.1804 24.0079L16.9452 23.2412V41.166C17.0317 43.5017 20.3752 43.5 20.4608 41.166V18.9867C20.461 18.2739 20.0326 17.6314 19.3758 17.3586Z" fill="white"/>
<path d="M48.8282 28.3141H46.8203V26.3011C46.7338 23.9653 43.3903 23.9671 43.3046 26.3011V28.3141H41.2969C38.9671 28.4008 38.9688 31.7527 41.2969 31.8386H43.3046V33.8516C43.3911 36.1874 46.7346 36.1856 46.8203 33.8516V31.8386H48.8282C51.158 31.7519 51.1562 28.3998 48.8282 28.3141Z" fill="white"/>
<path d="M30.0001 16.9883C26.9499 16.9883 24.4766 19.4624 24.4766 22.5258V26.301C24.4766 27.7154 25.0031 29.0481 25.9611 30.0763C25.0031 31.1046 24.4766 32.4372 24.4766 33.8516V37.6267C24.7435 44.9637 35.2563 44.9642 35.5236 37.6267V33.8516C35.5236 32.4372 34.9971 31.1045 34.0391 30.0763C34.9972 29.0479 35.5236 27.7154 35.5236 26.301V22.5258C35.5236 19.4679 33.0557 16.9883 30.0001 16.9883ZM32.008 37.6266C31.9107 40.2941 28.0892 40.2934 27.9922 37.6266V33.8515C28.0893 31.1841 31.9109 31.1845 32.008 33.8515V37.6266ZM32.008 26.301C31.9108 28.9684 28.0892 28.9679 27.9922 26.301V22.5258C28.0895 19.8583 31.9109 19.859 32.008 22.5258V26.301Z" fill="white"/>
<path d="M30 0C13.4579 0 0 13.4922 0 30.0763C1.5082 69.9218 58.4979 69.911 60 30.076C60 13.492 46.5421 0 30 0ZM30 56.6281C15.3964 56.6281 3.51562 44.717 3.51562 30.0763C4.84699 -5.09981 55.1583 -5.09018 56.4844 30.0767C56.4844 44.717 44.6036 56.6281 30 56.6281Z" fill="white"/>
</svg>
