<svg width="20" height="21" viewBox="0 0 20 21" fill="none" xmlns="http://www.w3.org/2000/svg">
<path d="M18.1356 5.56799H17.3383C17.8969 4.92854 18.2386 4.07826 18.2386 3.14561C18.2386 2.86777 18.2081 2.5976 18.1512 2.33791L18.1559 2.36235C17.859 1.1721 16.9315 0.265974 15.7702 0.0356028L15.7512 0.0321123C15.6115 0.0111695 15.4502 0 15.2861 0C14.0156 0 12.9044 0.70647 12.3044 1.7578L12.2956 1.77455L10.0007 5.17357L7.70644 1.77455C7.09559 0.705772 5.98441 0 4.71254 0C4.54915 0 4.38915 0.0118675 4.23186 0.0342065L4.25017 0.0321123C3.06983 0.264577 2.1417 1.1714 1.85017 2.34071L1.84542 2.36235C1.79254 2.5976 1.76203 2.86846 1.76203 3.14631C1.76203 4.07896 2.10373 4.92854 2.66509 5.57148L2.66237 5.56799H1.86441C0.835254 5.56939 0.00135593 6.42804 0 7.48775V9.58203C0.00271186 10.4525 0.568814 11.1862 1.34305 11.4166L1.35593 11.4201V18.6572C1.35729 19.7169 2.19119 20.5756 3.22034 20.577H16.7797C17.8088 20.5756 18.6427 19.7169 18.6441 18.6572V11.4201C19.4305 11.1862 19.9966 10.4525 20 9.58273V7.48775C19.9986 6.42804 19.1647 5.56939 18.1356 5.56799ZM13.1288 2.37212C13.56 1.57699 14.3722 1.04784 15.3044 1.04784C15.3973 1.04784 15.4888 1.05342 15.579 1.0632L15.5681 1.0625C16.3546 1.21887 16.9722 1.82412 17.1661 2.60389L17.1695 2.61855C17.1892 2.75049 17.2007 2.90267 17.2007 3.05695C17.2007 4.0992 16.6888 5.01789 15.9092 5.56171L15.899 5.56869H10.9729L13.1288 2.37212ZM2.83119 2.61785C3.0278 1.82342 3.64542 1.21887 4.41898 1.06459L4.43186 1.0625C4.50915 1.05342 4.59932 1.04854 4.69017 1.04854C5.62373 1.04854 6.43661 1.57699 6.86373 2.35886L6.87051 2.37142L9.0278 5.56729H4.1017C3.31186 5.0172 2.8 4.09781 2.8 3.05625C2.8 2.90128 2.81153 2.74979 2.83322 2.60109L2.83119 2.61785ZM1.01695 9.58203V7.48775C1.01763 7.00606 1.39661 6.61583 1.86441 6.61513H9.49153V10.4546H1.86441C1.39661 10.4539 1.01763 10.0637 1.01695 9.58203ZM2.37288 18.6572V11.5018H9.49153V19.5299H3.22034C2.75254 19.5292 2.37356 19.1389 2.37288 18.6572ZM17.6271 18.6572C17.6264 19.1389 17.2475 19.5292 16.7797 19.5299H10.5085V11.5018H17.6271V18.6572ZM18.9831 9.58203C18.9824 10.0637 18.6034 10.4539 18.1356 10.4546H10.5085V6.61513H18.1356C18.6034 6.61583 18.9824 7.00606 18.9831 7.48775V9.58203Z" fill="#FFB33F"/>
</svg>
