<svg width="27" height="26" viewBox="0 0 27 26" fill="none" xmlns="http://www.w3.org/2000/svg">
<path d="M24.4831 7.03542H23.4067C24.1609 6.22744 24.6222 5.15307 24.6222 3.97462C24.6222 3.62356 24.581 3.2822 24.5041 2.95406L24.5105 2.98494C24.1096 1.481 22.8576 0.33607 21.2897 0.0449858L21.2641 0.0405754C21.0756 0.0141132 20.8577 0 20.6362 0C18.9211 0 17.4209 0.892659 16.6109 2.22106L16.5991 2.24223L13.5009 6.53705L10.4037 2.24223C9.57905 0.891776 8.07895 0 6.36193 0C6.14136 0 5.92536 0.0149952 5.71302 0.0432215L5.73773 0.0405754C4.14427 0.334306 2.89129 1.48012 2.49773 2.95759L2.49132 2.98494C2.41993 3.2822 2.37875 3.62444 2.37875 3.97551C2.37875 5.15396 2.84003 6.22744 3.59786 7.03983L3.5942 7.03542H2.51695C1.12759 7.03718 0.00183051 8.12213 0 9.46112V12.1073C0.00366102 13.2073 0.767898 14.1343 1.81312 14.4254L1.83051 14.4298V23.5743C1.83234 24.9133 2.9581 25.9982 4.34746 26H22.6525C24.0419 25.9982 25.1677 24.9133 25.1695 23.5743V14.4298C26.2312 14.1343 26.9954 13.2073 27 12.1082V9.46112C26.9982 8.12213 25.8724 7.03718 24.4831 7.03542ZM17.7239 2.99729C18.306 1.9926 19.4025 1.32399 20.6609 1.32399C20.7863 1.32399 20.9099 1.33105 21.0316 1.3434L21.017 1.34252C22.0787 1.5401 22.9125 2.30486 23.1742 3.29013L23.1788 3.30866C23.2054 3.47537 23.2209 3.66766 23.2209 3.8626C23.2209 5.17954 22.5299 6.34034 21.4774 7.02748L21.4636 7.0363H14.8134L17.7239 2.99729ZM3.8221 3.30778C4.08753 2.30398 4.92132 1.5401 5.96563 1.34516L5.98302 1.34252C6.08736 1.33105 6.20908 1.32487 6.33173 1.32487C7.59203 1.32487 8.68942 1.9926 9.26603 2.98053L9.27519 2.9964L12.1875 7.03454H5.53729C4.47102 6.33946 3.78 5.17777 3.78 3.86172C3.78 3.6659 3.79556 3.47449 3.82485 3.28661L3.8221 3.30778ZM1.37288 12.1073V9.46112C1.3738 8.85249 1.88542 8.35941 2.51695 8.35853H12.8136V13.2099H2.51695C1.88542 13.2091 1.3738 12.716 1.37288 12.1073ZM3.20339 23.5743V14.533H12.8136V24.6769H4.34746C3.71593 24.676 3.20431 24.1829 3.20339 23.5743ZM23.7966 23.5743C23.7957 24.1829 23.2841 24.676 22.6525 24.6769H14.1864V14.533H23.7966V23.5743ZM25.6271 12.1073C25.6262 12.716 25.1146 13.2091 24.4831 13.2099H14.1864V8.35853H24.4831C25.1146 8.35941 25.6262 8.85249 25.6271 9.46112V12.1073Z" fill="white" fill-opacity="0.9"/>
</svg>
