<svg width="35" height="29" viewBox="0 0 35 29" fill="none" xmlns="http://www.w3.org/2000/svg">
<path d="M32.375 10.8029H25.8814C26.5754 12.4678 26.2708 14.4714 24.9517 15.8285L17.5 23.4952V26.1071C17.5 27.5987 18.6752 28.8078 20.125 28.8078H32.375C33.8248 28.8078 35 27.5987 35 26.1071V13.5037C35 12.0121 33.8248 10.8029 32.375 10.8029ZM26.25 21.1557C25.5254 21.1557 24.9375 20.5509 24.9375 19.8054C24.9375 19.0593 25.5254 18.455 26.25 18.455C26.9746 18.455 27.5625 19.0593 27.5625 19.8054C27.5625 20.5509 26.9746 21.1557 26.25 21.1557ZM23.7141 10.651L14.1477 0.808531C13.0998 -0.26951 11.4007 -0.26951 10.3529 0.808531L0.785859 10.651C-0.261953 11.729 -0.261953 13.4772 0.785859 14.5553L10.3523 24.3983C11.4002 25.4763 13.0993 25.4763 14.1471 24.3983L23.7141 14.5558C24.762 13.4772 24.762 11.729 23.7141 10.651ZM5.25 13.9538C4.52539 13.9538 3.9375 13.3489 3.9375 12.6034C3.9375 11.8573 4.52539 11.253 5.25 11.253C5.97461 11.253 6.5625 11.8573 6.5625 12.6034C6.5625 13.3489 5.97461 13.9538 5.25 13.9538ZM12.25 21.1557C11.5254 21.1557 10.9375 20.5509 10.9375 19.8054C10.9375 19.0593 11.5254 18.455 12.25 18.455C12.9746 18.455 13.5625 19.0593 13.5625 19.8054C13.5625 20.5509 12.9746 21.1557 12.25 21.1557ZM12.25 13.9538C11.5254 13.9538 10.9375 13.3489 10.9375 12.6034C10.9375 11.8573 11.5254 11.253 12.25 11.253C12.9746 11.253 13.5625 11.8573 13.5625 12.6034C13.5625 13.3489 12.9746 13.9538 12.25 13.9538ZM12.25 6.75183C11.5254 6.75183 10.9375 6.14698 10.9375 5.40146C10.9375 4.65538 11.5254 4.0511 12.25 4.0511C12.9746 4.0511 13.5625 4.65538 13.5625 5.40146C13.5625 6.14698 12.9746 6.75183 12.25 6.75183ZM19.25 13.9538C18.5254 13.9538 17.9375 13.3489 17.9375 12.6034C17.9375 11.8573 18.5254 11.253 19.25 11.253C19.9746 11.253 20.5625 11.8573 20.5625 12.6034C20.5625 13.3489 19.9746 13.9538 19.25 13.9538Z" fill="#F5F5F5" fill-opacity="0.8"/>
</svg>
