<svg width="48" height="32" viewBox="0 0 48 32" fill="none" xmlns="http://www.w3.org/2000/svg">
<path d="M47.9316 22.3258C47.9316 22.3251 47.9316 22.3243 47.9316 22.3236C47.9308 22.3193 47.9316 22.3164 47.9308 22.3119H47.93C47.3035 14.8909 45.3838 9.38664 42.6848 5.66626C41.3337 3.80611 39.7816 2.39189 38.0872 1.43825C36.3953 0.483861 34.5577 -0.00141395 32.7071 9.28497e-05C31.343 -0.000660552 30.1773 0.22017 29.189 0.553508C27.7043 1.05326 26.6242 1.79202 25.7798 2.33815C25.3584 2.61272 24.9949 2.83715 24.6971 2.97369C24.3961 3.11248 24.1838 3.16112 24 3.16112C23.8755 3.16036 23.7445 3.1401 23.5762 3.0841C23.2841 2.98892 22.8929 2.77169 22.4251 2.47033C21.7191 2.02214 20.8421 1.40184 19.6854 0.892707C18.5287 0.382737 17.0824 -0.00216731 15.2928 9.18438e-06C13.4423 -0.00149762 11.6047 0.484447 9.91266 1.43817C7.37063 2.87122 5.15072 5.32916 3.44316 8.79531C1.73831 12.2609 0.538407 16.7468 0.0699385 22.312H0.0691885C0.0683447 22.3164 0.0691885 22.32 0.0683447 22.3237C0.0683447 22.3244 0.0683447 22.3251 0.0683447 22.3259C0.0227822 22.7791 9.84016e-07 23.2199 9.84016e-07 23.6478C-0.000842766 25.7454 0.540938 27.5366 1.56103 28.9334C2.57784 30.3309 4.07944 31.3064 5.83734 31.7647C6.44016 31.9231 7.06247 32 7.68956 32C9.51253 31.9978 11.3501 31.3623 13.0982 30.2618C14.8495 29.1578 16.5293 27.5787 18.0585 25.5965C18.794 24.6399 19.7929 23.5206 20.8698 22.6788C21.4075 22.2576 21.9631 21.9075 22.4975 21.6721C23.0328 21.4361 23.5372 21.3168 24 21.3176C24.4627 21.3168 24.9672 21.436 25.5024 21.6721C26.3045 22.0236 27.1513 22.6397 27.92 23.3557C28.6912 24.0704 29.389 24.8789 29.9414 25.5958C31.4707 27.5788 33.1505 29.1578 34.901 30.2618C36.6499 31.3623 38.4874 31.9978 40.3103 32C40.9375 32 41.5598 31.923 42.1618 31.7647C43.9205 31.3064 45.4221 30.3309 46.4381 28.9334C47.4582 27.5366 48 25.7454 48 23.6478C48 23.2207 47.9772 22.7791 47.9316 22.3258ZM44.6941 27.9172C43.9343 28.9516 42.8907 29.6307 41.5737 29.9808C41.1678 30.0875 40.7481 30.1399 40.3104 30.1405C39.0463 30.1427 37.6009 29.6873 36.1016 28.7423C34.6041 27.8002 33.0724 26.3795 31.6562 24.5419C30.8533 23.5025 29.7771 22.2807 28.5024 21.2814C27.8638 20.7816 27.1741 20.3357 26.4249 20.0052C25.6773 19.6754 24.8615 19.4582 24 19.4582C23.1385 19.4582 22.3226 19.6754 21.5751 20.0052C20.4525 20.5027 19.4585 21.253 18.5791 22.0658C17.7023 22.88 16.9448 23.7625 16.3438 24.5419C14.9276 26.3795 13.395 27.8002 11.8983 28.7423C10.3991 29.6872 8.95284 30.1427 7.68947 30.1405C7.251 30.1398 6.83213 30.0875 6.42534 29.9808C5.10909 29.6307 4.06547 28.9516 3.30497 27.9172C2.54934 26.8822 2.08247 25.4651 2.08247 23.6478C2.08247 23.2752 2.10197 22.8851 2.14341 22.4791V22.4747L2.14425 22.4653C2.74697 15.2519 4.62356 10.0273 7.06153 6.67816C8.27925 5.00176 9.63122 3.79456 11.023 3.01152C12.4173 2.22857 13.8473 1.861 15.2928 1.85957C16.408 1.86033 17.3013 2.03461 18.0748 2.29395C19.2332 2.68321 20.1263 3.27806 20.9959 3.8432C21.432 4.12505 21.8615 4.40029 22.3438 4.62472C22.823 4.84698 23.3777 5.0206 24 5.0206C24.4124 5.0206 24.8021 4.94291 25.1518 4.82597C25.7668 4.6182 26.2768 4.30587 26.7851 3.98341C27.5457 3.49529 28.3046 2.96716 29.2312 2.56191C30.1577 2.15733 31.242 1.86175 32.707 1.85957C34.1525 1.861 35.5825 2.22857 36.9769 3.01152C39.0641 4.1839 41.0644 6.3208 42.6498 9.54352C44.236 12.7634 45.4017 17.0554 45.8556 22.4652V22.4696L45.8564 22.479C45.8971 22.8843 45.9175 23.2744 45.9175 23.6477C45.9167 25.4651 45.4506 26.8829 44.6941 27.9172Z" fill="black"/>
</svg>
