<svg width="16" height="27" viewBox="0 0 16 27" fill="none" xmlns="http://www.w3.org/2000/svg">
<path d="M15.968 13.0244C15.9181 12.8429 15.8306 12.674 15.7112 12.5288C15.5918 12.3835 15.4432 12.2652 15.2752 12.1816L10.7586 9.93419L11.971 1.51967C12.0109 1.22805 11.9539 0.931364 11.8088 0.675597C11.6637 0.41983 11.4386 0.219259 11.1684 0.104964C10.8983 -0.00933082 10.5981 -0.0309672 10.3145 0.0434072C10.0308 0.117782 9.77955 0.284015 9.59955 0.516346L0.273427 12.5562C0.149114 12.7197 0.0640104 12.9097 0.0247291 13.1116C-0.0145522 13.3134 -0.00695308 13.5216 0.0469357 13.7201C0.0998567 13.9204 0.198411 14.1056 0.334824 14.2612C0.471237 14.4167 0.641777 14.5383 0.832994 14.6164L6.52193 16.9039L5.30953 25.2248C5.26832 25.5235 5.32879 25.8274 5.48114 26.0872C5.6335 26.347 5.8688 26.5475 6.14888 26.6562C6.30501 26.7212 6.47284 26.7531 6.64183 26.7499C6.86127 26.7487 7.07704 26.6932 7.26995 26.5882C7.46286 26.4831 7.62696 26.3319 7.74765 26.1479L15.7415 14.108C15.8541 13.9541 15.9325 13.7778 15.9716 13.5909C16.0107 13.4039 16.0094 13.2108 15.968 13.0244Z" fill="#5393FF"/>
</svg>
