<svg width="32" height="29" viewBox="0 0 32 29" fill="none" xmlns="http://www.w3.org/2000/svg">
<path fill-rule="evenodd" clip-rule="evenodd" d="M32 6.00809L29.501 6.82792L30.9911 9.76515L27.1275 8.1192L24.5038 10.7452L24.403 6.33362L22.1365 3.71536L25.2802 3.93981L24.5004 0L27.2852 3.22678L29.9835 1.45405L29.2339 4.24421L32 6.00809ZM23.1912 6.63802L23.6693 8.19716C22.8699 8.29025 21.9151 8.70745 21.1474 9.2737C21.4479 9.83768 21.6467 10.4608 21.6927 11.0921L20.4644 12.1258L16.4527 7.90389L17.8593 7.00268C18.4784 6.97498 19.0979 7.19543 19.6556 7.57665C20.5434 7.03124 21.7524 6.60947 23.1912 6.63802ZM10.9308 28.8078C-3.71899 28.8078 -3.47533 8.05981 10.6522 8.05981C24.1954 8.05981 24.2238 28.8078 10.9308 28.8078Z" fill="#F5F5F5" fill-opacity="0.8"/>
</svg>
