<svg width="19" height="24" viewBox="0 0 19 24" fill="none" xmlns="http://www.w3.org/2000/svg">
<path d="M11.8433 15.2123C16.055 15.2123 19 12.0717 19 7.55707C19 3.04246 16.055 0 11.8433 0H3.76042C3.43252 0 3.16667 0.283804 3.16667 0.633845V11.5482H0.59375C0.265852 11.5482 0 11.832 0 12.1821V14.5784C0 14.9285 0.265852 15.2123 0.59375 15.2123H3.16667V16.9025H0.59375C0.265852 16.9025 0 17.1863 0 17.5364V19.6492C0 19.9992 0.265852 20.283 0.59375 20.283H3.16667V23.0297C3.16667 23.3797 3.43252 23.6635 3.76042 23.6635H6.65792C6.98582 23.6635 7.25167 23.3797 7.25167 23.0297V20.283H15.2396C15.5675 20.283 15.8333 19.9992 15.8333 19.6492V17.5364C15.8333 17.1863 15.5675 16.9025 15.2396 16.9025H7.25167V15.2123H11.8433ZM7.25167 3.6313H11.1467C13.4583 3.6313 14.8517 5.1689 14.8517 7.55707C14.8517 9.97793 13.4583 11.5482 11.0833 11.5482H7.25167V3.6313Z" fill="#3F87FF"/>
</svg>
