<svg width="27" height="29" viewBox="0 0 27 29" fill="none" xmlns="http://www.w3.org/2000/svg">
<path d="M3.537 15.5982C2.4405 12.0658 3.6425 8.8494 6.148 5.00289C5.8025 5.07779 5.4475 5.12901 5.078 5.12901C3.318 5.12901 1.584 4.28384 0.5525 2.92403L0.257 2.53406L0.66 2.24847C1.4255 1.70629 2.365 1.41973 3.3775 1.41973C4.826 1.41973 6.2505 1.99864 7.287 2.9593C8.0955 1.23562 10.083 0 12.2745 0C12.5445 0 12.814 0.0198125 13.0755 0.0589541L13.5695 0.132405L13.4935 0.609837C13.133 2.87281 10.793 4.6453 8.166 4.64578C8.05 4.64578 7.9345 4.64046 7.8195 4.63321C8.0485 8.88178 11.336 12.6732 14.6165 13.889C15.8065 12.3717 17.553 11.4115 19.5 11.4115H20.5C24.084 11.4115 27 14.6631 27 18.66C27 22.3905 23.86 25.4252 20 25.4252C17.4495 25.4252 15.2195 24.0958 13.996 22.1204C13.9525 25.8147 10.833 28.8078 7 28.8078C3.14 28.8078 0 25.7731 0 22.0426C-0.000499725 19.2355 1.44 16.8019 3.537 15.5982ZM25.026 17.4031C24.8895 16.7488 24.641 16.1336 24.288 15.574C24.144 15.346 23.836 15.2749 23.6005 15.4131C23.365 15.5523 23.2905 15.8495 23.434 16.0776C23.726 16.5405 23.932 17.0508 24.045 17.5944C24.093 17.824 24.3015 17.982 24.5345 17.982C24.567 17.982 24.6005 17.9791 24.634 17.9723C24.9055 17.9196 25.0805 17.665 25.026 17.4031ZM20.5335 23.0037C20.5855 23.2284 20.792 23.3816 21.021 23.3816C21.057 23.3816 21.094 23.3777 21.1305 23.37C22.9085 22.9853 24.3545 21.7294 24.9045 20.0918C24.9895 19.8381 24.846 19.5655 24.583 19.4829C24.3195 19.4012 24.038 19.5399 23.953 19.7936C23.5185 21.0877 22.3245 22.1213 20.912 22.4267C20.643 22.4847 20.473 22.7432 20.5335 23.0037ZM15.9995 16.7265C17.654 16.7265 18.9995 15.4262 18.9995 13.8272C18.9995 13.5604 18.7755 13.3439 18.4995 13.3439C18.2235 13.3439 17.9995 13.5604 17.9995 13.8272C17.9995 14.8932 17.1025 15.7601 15.9995 15.7601C15.7235 15.7601 15.4995 15.9766 15.4995 16.2433C15.4995 16.5101 15.7235 16.7265 15.9995 16.7265ZM7.604 26.553C7.656 26.7782 7.863 26.9309 8.0915 26.9309C8.1275 26.9309 8.1645 26.9271 8.201 26.9193C9.979 26.5347 11.425 25.2783 11.975 23.6406C12.06 23.3869 11.9165 23.1144 11.6535 23.0317C11.3905 22.9501 11.1085 23.0883 11.0235 23.3425C10.589 24.6365 9.395 25.6702 7.9825 25.9761C7.7135 26.0345 7.5435 26.2931 7.604 26.553ZM7.4995 14.7936C9.8295 14.7936 11.8715 16.1723 13.019 18.2323C13.087 16.9372 13.4665 15.7369 14.066 14.711C10.737 13.3947 7.5405 9.83857 6.9155 5.63785C4.3555 9.61532 3.606 12.3809 4.435 15.1744C5.0845 14.9309 5.777 14.7931 6.4995 14.7931L7.4995 14.7936ZM3.9995 20.1092C5.654 20.1092 6.9995 18.8088 6.9995 17.2098C6.9995 16.943 6.7755 16.7265 6.4995 16.7265C6.2235 16.7265 5.9995 16.943 5.9995 17.2098C5.9995 18.2758 5.1025 19.1427 3.9995 19.1427C3.7235 19.1427 3.4995 19.3592 3.4995 19.6259C3.4995 19.8927 3.7235 20.1092 3.9995 20.1092Z" fill="#F5F5F5" fill-opacity="0.8"/>
</svg>
