<svg width="50" height="53" viewBox="0 0 50 53" fill="none" xmlns="http://www.w3.org/2000/svg">
<path d="M25 0.916809C11.25 0.916809 0 12.4914 0 26.6381C0 40.7847 11.25 52.3593 25 52.3593C38.75 52.3593 50 40.7847 50 26.6381C50 12.4914 38.75 0.916809 25 0.916809ZM37.25 16.6068L33 37.6982C32.75 39.2415 31.75 39.4987 30.75 38.727L24.25 33.5828C22.75 35.1261 21.25 36.4121 21 36.9265C20.5 37.1838 20.25 37.6982 19.75 37.6982C19 37.6982 19 37.1838 18.75 36.6693L16.5 28.953L9.75 26.6381C8.25 26.1236 8.25 25.0948 10 24.3231L35.5 14.2919C36.5 14.0346 37.75 14.5491 37.25 16.6068ZM31.25 18.9217L17 28.1813L19.25 35.8977L19.75 30.7535L32 19.4361C32.75 18.6645 32.25 18.6645 31.25 18.9217Z" fill="#D9D9D9"/>
</svg>
