<svg width="50" height="53" viewBox="0 0 50 53" fill="none" xmlns="http://www.w3.org/2000/svg">
<path d="M25 0.916809C11.1927 0.916809 0 12.4324 0 26.6381C0 40.8437 11.1927 52.3593 25 52.3593C38.8073 52.3593 50 40.8437 50 26.6381C50 12.4324 38.8073 0.916809 25 0.916809ZM34.6146 29.9363C34.6146 29.9363 36.8255 32.1815 37.3698 33.2238C37.3854 33.2452 37.3932 33.2666 37.3984 33.2773C37.6198 33.6605 37.6719 33.9579 37.5625 34.1803C37.3802 34.55 36.7552 34.7322 36.5417 34.7483H32.6354C32.3646 34.7483 31.7969 34.6759 31.1094 34.1883C30.5807 33.8078 30.0599 33.1836 29.5521 32.5754C28.7943 31.6698 28.138 30.8874 27.4766 30.8874C27.3925 30.8873 27.309 30.9008 27.2292 30.9276C26.7292 31.0937 26.0885 31.8278 26.0885 33.7837C26.0885 34.3946 25.6198 34.7456 25.2891 34.7456H23.5C22.8906 34.7456 19.7161 34.5259 16.9036 31.4742C13.4609 27.7366 10.362 20.2399 10.3359 20.1702C10.1406 19.6853 10.5443 19.4254 10.9844 19.4254H14.9297C15.4557 19.4254 15.6276 19.7549 15.7474 20.047C15.888 20.3873 16.4036 21.7403 17.25 23.2621C18.6224 25.7432 19.4635 26.7506 20.138 26.7506C20.2645 26.7491 20.3887 26.716 20.5 26.6541C21.3802 26.1504 21.2161 22.9219 21.1771 22.252C21.1771 22.1261 21.1745 20.8079 20.724 20.1756C20.401 19.7174 19.8516 19.5433 19.5182 19.479C19.6531 19.2874 19.8309 19.1321 20.0365 19.0262C20.6406 18.7154 21.7292 18.6698 22.8099 18.6698H23.4115C24.5833 18.6859 24.8854 18.7636 25.3099 18.8735C26.1693 19.0851 26.1875 19.6558 26.112 21.609C26.0885 22.1636 26.0651 22.7906 26.0651 23.5301C26.0651 23.6908 26.0573 23.8623 26.0573 24.0445C26.0312 25.0385 26 26.1665 26.6823 26.63C26.7713 26.6874 26.8741 26.7181 26.9792 26.7184C27.2161 26.7184 27.9297 26.7184 29.862 23.3077C30.4579 22.2099 30.9758 21.0691 31.4115 19.8943C31.4505 19.8246 31.5651 19.6103 31.7005 19.5272C31.8005 19.4748 31.9113 19.4481 32.0234 19.4495H36.6615C37.1667 19.4495 37.513 19.5272 37.5781 19.7281C37.6927 20.047 37.5573 21.0196 35.4401 23.9695L34.4948 25.2529C32.5755 27.8411 32.5755 27.9723 34.6146 29.9363Z" fill="#D9D9D9"/>
</svg>
