<svg width="27" height="27" viewBox="0 0 27 27" fill="none" xmlns="http://www.w3.org/2000/svg">
<path fill-rule="evenodd" clip-rule="evenodd" d="M27 23.7068C27 24.5802 26.6908 25.4179 26.1404 26.0354C25.59 26.653 24.8436 27 24.0652 27H2.93478C2.54938 27 2.16775 26.9148 1.81169 26.7493C1.45563 26.5838 1.1321 26.3412 0.859578 26.0354C0.309199 25.4179 0 24.5802 0 23.7068V4.60633C0 3.90761 0.24736 3.2375 0.687662 2.74343C1.12797 2.24935 1.72514 1.97178 2.34783 1.97178H14.1873L18.9417 0.0393427C19.0862 -0.0197108 19.2457 -0.0120353 19.3853 0.0606861C19.5248 0.133407 19.6329 0.26524 19.6859 0.42728L20.186 1.97178H22.3043C22.927 1.97178 23.5242 2.24935 23.9645 2.74343C24.4048 3.2375 24.6522 3.90761 24.6522 4.60633V5.92361C25.2749 5.92361 25.872 6.20118 26.3123 6.69525C26.7526 7.18932 27 7.85943 27 8.55816V23.7068ZM2.34783 3.28906C2.03648 3.28906 1.7379 3.42784 1.51774 3.67488C1.29759 3.92192 1.17391 4.25697 1.17391 4.60633C1.17391 4.9557 1.29759 5.29075 1.51774 5.53779C1.7379 5.78482 2.03648 5.92361 2.34783 5.92361H4.48083C4.48846 5.92031 4.49315 5.91307 4.50078 5.90978L10.9467 3.28906H2.34783ZM19.4153 3.40827L18.792 1.48242L17.5876 1.97178L14.3528 3.28906H14.347L7.86522 5.92361H20.23L19.4153 3.40827ZM23.4783 4.60633C23.4783 4.25697 23.3546 3.92192 23.1344 3.67488C22.9143 3.42784 22.6157 3.28906 22.3043 3.28906H20.6122L21.4656 5.92361H23.4783V4.60633ZM24.6522 7.24088H2.34783C1.9345 7.23848 1.52924 7.11229 1.17391 6.87534V23.7068C1.17391 24.2309 1.35943 24.7334 1.68966 25.104C2.01989 25.4745 2.46777 25.6827 2.93478 25.6827H24.0652C24.5322 25.6827 24.9801 25.4745 25.3103 25.104C25.6406 24.7334 25.8261 24.2309 25.8261 23.7068V19.0964H23.4783C22.8556 19.0964 22.2584 18.8188 21.8181 18.3247C21.3778 17.8306 21.1304 17.1605 21.1304 16.4618C21.1304 15.7631 21.3778 15.093 21.8181 14.5989C22.2584 14.1048 22.8556 13.8273 23.4783 13.8273H25.8261V8.55816C25.8261 8.20879 25.7024 7.87374 25.4823 7.6267C25.2621 7.37967 24.9635 7.24088 24.6522 7.24088ZM25.8261 17.7791V15.1445H23.4783C23.1669 15.1445 22.8683 15.2833 22.6482 15.5304C22.428 15.7774 22.3043 16.1124 22.3043 16.4618C22.3043 16.8112 22.428 17.1462 22.6482 17.3933C22.8683 17.6403 23.1669 17.7791 23.4783 17.7791H25.8261ZM23.4783 15.8032H24.6522V17.1204H23.4783V15.8032Z" fill="white"/>
</svg>
