<svg width="32" height="32" viewBox="0 0 32 32" fill="none" xmlns="http://www.w3.org/2000/svg">
<path fill-rule="evenodd" clip-rule="evenodd" d="M32 28.097C32 29.1321 31.6335 30.1249 30.9812 30.8568C30.3289 31.5888 29.4442 32 28.5217 32H3.47826C3.02149 32 2.56919 31.899 2.14719 31.7029C1.72519 31.5068 1.34175 31.2193 1.01876 30.8568C0.366459 30.1249 0 29.1321 0 28.097V5.45936C0 4.63124 0.293167 3.83704 0.815007 3.25147C1.33685 2.6659 2.04461 2.33693 2.78261 2.33693H16.8146L22.4494 0.0466284C22.6207 -0.0233609 22.8098 -0.0142641 22.9751 0.0719242C23.1405 0.158113 23.2686 0.314359 23.3315 0.506406L23.9242 2.33693H26.4348C27.1728 2.33693 27.8805 2.6659 28.4024 3.25147C28.9242 3.83704 29.2174 4.63124 29.2174 5.45936V7.02057C29.9554 7.02057 30.6632 7.34954 31.185 7.93511C31.7068 8.52068 32 9.31488 32 10.143V28.097ZM2.78261 3.89814C2.41361 3.89814 2.05973 4.06263 1.79881 4.35541C1.53789 4.6482 1.3913 5.0453 1.3913 5.45936C1.3913 5.87342 1.53789 6.27052 1.79881 6.5633C2.05973 6.85609 2.41361 7.02057 2.78261 7.02057H5.31061C5.31965 7.01667 5.32522 7.00808 5.33426 7.00418L12.9739 3.89814H2.78261ZM23.0108 4.03943L22.272 1.75694L20.8445 2.33693L17.0108 3.89814H17.0038L9.32174 7.02057H23.9763L23.0108 4.03943ZM27.8261 5.45936C27.8261 5.0453 27.6795 4.6482 27.4186 4.35541C27.1577 4.06263 26.8038 3.89814 26.4348 3.89814H24.4292L25.4407 7.02057H27.8261V5.45936ZM29.2174 8.58179H2.78261C2.29274 8.57894 1.81243 8.42938 1.3913 8.14855V28.097C1.3913 28.7181 1.61118 29.3137 2.00256 29.7529C2.39394 30.1921 2.92477 30.4388 3.47826 30.4388H28.5217C29.0752 30.4388 29.6061 30.1921 29.9974 29.7529C30.3888 29.3137 30.6087 28.7181 30.6087 28.097V22.6327H27.8261C27.0881 22.6327 26.3803 22.3037 25.8585 21.7182C25.3366 21.1326 25.0435 20.3384 25.0435 19.5103C25.0435 18.6822 25.3366 17.888 25.8585 17.3024C26.3803 16.7168 27.0881 16.3879 27.8261 16.3879H30.6087V10.143C30.6087 9.72894 30.4621 9.33184 30.2012 9.03906C29.9403 8.74627 29.5864 8.58179 29.2174 8.58179ZM30.6087 21.0715V17.9491H27.8261C27.4571 17.9491 27.1032 18.1136 26.8423 18.4063C26.5814 18.6991 26.4348 19.0962 26.4348 19.5103C26.4348 19.9243 26.5814 20.3214 26.8423 20.6142C27.1032 20.907 27.4571 21.0715 27.8261 21.0715H30.6087ZM27.8261 18.7297H29.2174V20.2909H27.8261V18.7297Z" fill="#031725"/>
</svg>
