<svg width="35" height="35" viewBox="0 0 35 35" fill="none" xmlns="http://www.w3.org/2000/svg">
<path d="M17.3765 0.00274467C14.7691 0.0301913 12.3057 0.59971 9.98647 1.7113C7.66723 2.82289 5.68421 4.35304 4.03741 6.30176C2.33571 8.36026 1.16923 10.6795 0.537955 13.2595C-0.230552 16.3335 -0.175659 19.3801 0.702635 22.3992C1.55348 25.336 3.07677 27.8748 5.27251 30.0157C7.52313 32.2114 10.1855 33.6935 13.2595 34.462C16.3335 35.2306 19.3801 35.1757 22.3992 34.2974C25.336 33.4191 27.8748 31.8958 30.0157 29.7275C32.2114 27.4769 33.6935 24.8145 34.462 21.7405C35.2306 18.6665 35.1757 15.6062 34.2974 12.5596C33.4191 9.65025 31.8958 7.12516 29.7275 4.98432C27.4769 2.76114 24.8145 1.27902 21.7405 0.537955C20.2858 0.153701 18.8312 -0.024702 17.3765 0.00274467ZM16.8001 6.09591L18.6939 6.58995L17.9117 9.6777L19.4762 10.0071L20.2172 6.96048L22.1522 7.41335L21.37 10.5834C22.7149 11.05 23.7029 11.599 24.3342 12.2302C25.0753 12.9987 25.3635 13.9182 25.1988 14.9886C24.9792 16.5531 24.1695 17.5 22.7698 17.8294C23.6755 18.296 24.2793 18.8861 24.5812 19.5997C24.938 20.3956 24.9243 21.3563 24.5401 22.4816C24.046 23.8539 23.1952 24.7322 21.9875 25.1165C20.972 25.4184 19.5585 25.4046 17.747 25.0753L16.9648 28.2454L15.0298 27.7513L15.812 24.6224L14.2887 24.2519L13.5065 27.3808L11.5715 26.9279L12.3949 23.7167L8.52494 22.7286L9.47185 20.5466L10.1717 20.7524C10.6383 20.8622 10.8716 20.9034 10.8716 20.8759C11.2833 20.9857 11.5715 20.8348 11.7362 20.4231L13.0125 15.4003L13.877 11.7774C13.9319 11.201 13.6437 10.8305 13.0125 10.6658L11.6127 10.3364L12.1067 8.27792L14.7828 8.93664H14.7416L15.9767 9.266L16.8001 6.09591ZM17.4177 11.942L16.4708 15.7709L16.7589 15.8532C17.8843 16.1551 18.7625 16.2923 19.3938 16.2649C20.5191 16.2649 21.1916 15.8258 21.4111 14.9475C21.6307 14.0692 21.2602 13.3693 20.2996 12.8478C19.7781 12.5459 18.941 12.2714 17.7882 12.0244L17.4177 11.942ZM15.9767 17.7059L14.9063 21.9052L15.2768 22.0287C16.6492 22.3855 17.7059 22.5639 18.4469 22.5639C19.7918 22.5639 20.5878 22.0836 20.8348 21.123C21.0818 20.1623 20.6152 19.3801 19.435 18.7763C18.8037 18.4469 17.8019 18.1175 16.4296 17.7882L15.9767 17.7059Z" fill="#F2970C"/>
</svg>
