<svg width="37" height="32" viewBox="0 0 37 32" fill="none" xmlns="http://www.w3.org/2000/svg">
<path d="M36.159 21.7436C36.159 25.1423 33.3354 27.8974 29.8522 27.8974C26.3691 27.8974 23.5454 25.1423 23.5454 21.7436C23.5454 18.3449 26.3691 15.5897 29.8522 15.5897C33.3354 15.5897 36.159 18.3449 36.159 21.7436Z" fill="black"/>
<path d="M18.5 32L0 14.359L6.72727 0H30.2727L37 14.359L18.5 32Z" fill="#4DB6AC"/>
<path d="M30.2725 13.9487C30.2725 12.7705 26.311 11.7867 21.0225 11.5454V9.02564H27.7498V4.10256H9.24978V9.02564H15.9771V11.5454C10.6886 11.7867 6.72705 12.7705 6.72705 13.9487C6.72705 15.127 10.6886 16.1108 15.9771 16.352V25.4359H21.0225V16.352C26.311 16.1108 30.2725 15.127 30.2725 13.9487ZM18.4998 15.5897C12.9271 15.5897 8.40887 14.7635 8.40887 13.7436C8.40887 12.8837 11.627 12.1633 15.9771 11.9582V14.7036C16.7843 14.7528 17.6252 14.7692 18.4998 14.7692C19.3743 14.7692 20.2152 14.7528 21.0225 14.7036V11.9582C25.3725 12.1633 28.5907 12.8837 28.5907 13.7436C28.5907 14.7635 24.0725 15.5897 18.4998 15.5897Z" fill="white"/>
<path d="M29.7111 17.2308L29.6498 17.4338V23.3238L29.7111 23.3834L32.5131 21.7673L29.7111 17.2308Z" fill="#343434"/>
<path d="M29.7111 17.2308L26.9092 21.7673L29.7111 23.3834L29.7112 20.5246L29.7111 17.2308Z" fill="#8C8C8C"/>
<path d="M29.7112 23.9008L29.6768 23.9418V26.04L29.7112 26.1383L32.515 22.2855L29.7112 23.9008Z" fill="#3C3C3B"/>
<path d="M29.7112 26.1383V23.9008L26.9092 22.2855L29.7112 26.1383Z" fill="#8C8C8C"/>
<path d="M29.7111 23.3834L32.5131 21.7673L29.7112 20.5246L29.7111 23.3834Z" fill="#141414"/>
<path d="M26.9092 21.7673L29.7111 23.3834L29.7112 20.5246L26.9092 21.7673Z" fill="#393939"/>
</svg>
