<svg width="32" height="29" viewBox="0 0 32 29" fill="none" xmlns="http://www.w3.org/2000/svg">
<path d="M10.2727 0.0884238C5.57358 0.232942 3.41141 0.435268 2.62342 0.82065C1.27808 1.46616 0.461261 2.96916 0.201802 5.29108C0.0576577 6.60138 -1.49012e-08 9.03892 0.0768769 11.0622L0.144144 12.9313L1.21081 11.6884C3.4979 9.01002 4.07447 7.97912 4.22823 6.28344C4.28589 5.66683 4.37237 5.29108 4.51652 5.02131C5.12192 3.94224 6.64024 3.66284 11.964 3.65321C15.6637 3.64357 18.9021 3.50869 19.6324 3.33527C20.5646 3.10404 21.1796 2.5645 22.0733 1.17713C22.4288 0.60869 22.4673 0.415999 22.227 0.338922C21.4198 0.0884238 14.77 -0.0464599 10.2727 0.0884238Z" fill="url(#paint0_linear_278_16)"/>
<path d="M27.3586 0.0884815C27.1087 0.136654 26.7147 0.281173 26.4841 0.416056C25.6865 0.878515 25.3982 1.2639 21.0739 7.55526C20.0264 9.09679 18.3544 11.4765 17.3646 12.8446C16.3748 14.2224 15.433 15.6194 15.2697 15.9566C14.6931 17.1609 14.6835 17.3536 14.6354 23.2307L14.5874 28.6068H18.2102L18.1814 22.431C18.1526 18.2014 18.1718 16.2745 18.239 16.3131C18.2967 16.342 19.4979 18.0569 20.9105 20.1091C25.1099 26.1981 25.8114 27.1519 26.6763 27.9131C27.3778 28.5393 27.7429 28.6164 29.8186 28.5875L31.6156 28.5586L28.3291 23.7413C24.3796 17.9509 23.0919 15.9662 22.4673 14.6848C21.785 13.2878 21.7946 13.1722 22.6883 11.9872C23.8703 10.4071 30.4432 0.994129 30.9814 0.107751C31.039 0.0210396 30.7027 -0.00786405 29.4342 0.00177051C28.5502 0.0114051 27.618 0.0499433 27.3586 0.0884815Z" fill="url(#paint1_linear_278_16)"/>
<path d="M4.89129 12.3244C4.23784 12.44 3.75736 12.7001 3.28649 13.1818C2.72913 13.7503 1.15315 15.9759 0.778378 16.7081C0.124925 18.0184 0.00960961 19.1938 0 24.7722V28.6068H4.22823V15.7928H6.9958C8.51411 15.7928 9.92673 15.7446 10.1381 15.6965C10.782 15.5519 10.8589 15.3689 10.8589 14.0586C10.8589 13.4323 10.83 12.8446 10.8012 12.7579C10.7628 12.6808 10.5994 12.5363 10.436 12.44C10.1766 12.2955 9.8018 12.2762 7.73574 12.2569C6.41922 12.2473 5.13153 12.2762 4.89129 12.3244Z" fill="url(#paint2_linear_278_16)"/>
<defs>
<linearGradient id="paint0_linear_278_16" x1="2.30762" y1="27.3074" x2="28.8076" y2="1.80737" gradientUnits="userSpaceOnUse">
<stop offset="0.0363144" stop-color="#197AFF"/>
<stop offset="0.560084" stop-color="#5947FF"/>
<stop offset="1" stop-color="#911AFF"/>
</linearGradient>
<linearGradient id="paint1_linear_278_16" x1="0.792586" y1="12.9977" x2="13.9301" y2="20.5939" gradientUnits="userSpaceOnUse">
<stop offset="0.0363144" stop-color="#197AFF"/>
<stop offset="0.560084" stop-color="#5947FF"/>
<stop offset="1" stop-color="#911AFF"/>
</linearGradient>
<linearGradient id="paint2_linear_278_16" x1="0.792586" y1="12.9977" x2="13.9301" y2="20.5939" gradientUnits="userSpaceOnUse">
<stop offset="0.0363144" stop-color="#197AFF"/>
<stop offset="0.560084" stop-color="#5947FF"/>
<stop offset="1" stop-color="#911AFF"/>
</linearGradient>
</defs>
</svg>
