<svg width="32" height="32" viewBox="0 0 32 32" fill="none" xmlns="http://www.w3.org/2000/svg">
<path d="M16 32C24.8366 32 32 24.8366 32 16C32 7.16344 24.8366 0 16 0C7.16344 0 0 7.16344 0 16C0 24.8366 7.16344 32 16 32Z" fill="#FF8C00"/>
<path d="M21.59 19.445C21.641 19.846 21.527 20.001 21.4 20.001C21.273 20.001 21.095 19.846 20.905 19.536C20.715 19.226 20.638 18.876 20.74 18.696C20.803 18.579 20.943 18.527 21.108 18.592C21.438 18.722 21.565 19.225 21.59 19.445ZM19.813 20.325C20.206 20.661 20.321 21.048 20.117 21.333C20.053 21.4078 19.9731 21.4674 19.8831 21.5076C19.7932 21.5477 19.6955 21.5673 19.597 21.565C19.3778 21.5672 19.1654 21.4889 19 21.345C18.645 21.035 18.543 20.518 18.771 20.234C18.8197 20.1738 18.8819 20.1259 18.9527 20.0945C19.0235 20.063 19.1007 20.0488 19.178 20.053C19.381 20.053 19.61 20.143 19.813 20.324V20.325ZM6 14.894C6 9.981 9.91 6 14.734 6C19.559 6 23.469 9.982 23.469 14.894C23.4691 16.4974 23.0444 18.0721 22.238 19.458C22.212 19.497 22.148 19.484 22.136 19.432C21.832 17.247 20.524 16.045 18.62 15.683C18.454 15.657 18.429 15.553 18.645 15.528C19.229 15.476 20.054 15.489 20.485 15.567C20.5113 15.3393 20.5243 15.1102 20.524 14.881C20.524 11.636 17.934 8.999 14.747 8.999C11.561 8.999 8.971 11.636 8.971 14.881C8.971 18.127 11.561 20.764 14.747 20.764H15.014C14.9233 20.2391 14.8848 19.7065 14.899 19.174C14.912 18.812 14.989 18.76 15.141 19.044C15.941 20.454 17.083 21.721 19.318 22.224C21.146 22.639 22.974 23.117 24.942 25.664C25.119 25.884 24.853 26.116 24.65 25.935C22.644 24.125 20.816 23.53 19.153 23.53C17.286 23.544 16.017 23.79 14.734 23.79C9.91 23.79 6 19.806 6 14.893V14.894Z" fill="white"/>
</svg>
