<svg width="34" height="26" viewBox="0 0 34 26" fill="none" xmlns="http://www.w3.org/2000/svg">
<path d="M17 15.75C17.4142 15.75 17.75 15.4142 17.75 15C17.75 14.5858 17.4142 14.25 17 14.25V15.75ZM7 14.25C6.58579 14.25 6.25 14.5858 6.25 15C6.25 15.4142 6.58579 15.75 7 15.75V14.25ZM15 19.75C15.4142 19.75 15.75 19.4142 15.75 19C15.75 18.5858 15.4142 18.25 15 18.25V19.75ZM7 18.25C6.58579 18.25 6.25 18.5858 6.25 19C6.25 19.4142 6.58579 19.75 7 19.75V18.25ZM4.2 1.75H29.8V0.25H4.2V1.75ZM29.8 1.75C31.1373 1.75 32.25 2.86349 32.25 4.27273H33.75C33.75 2.06701 31.9973 0.25 29.8 0.25V1.75ZM32.25 4.27273V21.7273H33.75V4.27273H32.25ZM32.25 21.7273C32.25 23.1365 31.1373 24.25 29.8 24.25V25.75C31.9973 25.75 33.75 23.933 33.75 21.7273H32.25ZM29.8 24.25H4.2V25.75H29.8V24.25ZM4.2 24.25C2.8627 24.25 1.75 23.1365 1.75 21.7273H0.25C0.25 23.933 2.00268 25.75 4.2 25.75V24.25ZM1.75 21.7273V4.27273H0.25V21.7273H1.75ZM1.75 4.27273C1.75 2.86349 2.8627 1.75 4.2 1.75V0.25C2.00268 0.25 0.25 2.06701 0.25 4.27273H1.75ZM33 6.25H1V7.75H33V6.25ZM17 14.25H7V15.75H17V14.25ZM15 18.25H7V19.75H15V18.25Z" fill="#031725"/>
</svg>
