<svg width="38" height="33" viewBox="0 0 38 33" fill="none" xmlns="http://www.w3.org/2000/svg">
<path d="M18.6154 33L0 14.8077L6.76923 0H30.4615L37.2308 14.8077L18.6154 33Z" fill="#4DB6AC"/>
<path d="M30.4615 14.3846C30.4615 13.1695 26.4753 12.155 21.1538 11.9062V9.30769H27.9231V4.23077H9.30769V9.30769H16.0769V11.9062C10.7555 12.155 6.76923 13.1695 6.76923 14.3846C6.76923 15.5997 10.7555 16.6142 16.0769 16.863V26.2308H21.1538V16.863C26.4753 16.6142 30.4615 15.5997 30.4615 14.3846ZM18.6154 16.0769C13.0079 16.0769 8.46154 15.2248 8.46154 14.1731C8.46154 13.2863 11.6998 12.5434 16.0769 12.3318V15.1631C16.8892 15.2138 17.7354 15.2308 18.6154 15.2308C19.4954 15.2308 20.3415 15.2138 21.1538 15.1631V12.3318C25.531 12.5434 28.7692 13.2863 28.7692 14.1731C28.7692 15.2248 24.2228 16.0769 18.6154 16.0769Z" fill="white"/>
<path d="M36.3846 22.4231C36.3846 25.928 33.5433 28.7692 30.0385 28.7692C26.5336 28.7692 23.6923 25.928 23.6923 22.4231C23.6923 18.9182 26.5336 16.0769 30.0385 16.0769C33.5433 16.0769 36.3846 18.9182 36.3846 22.4231Z" fill="#FF5252"/>
<path d="M30.0378 21.6622C29.9726 21.6622 29.9127 21.6165 29.9046 21.5531C29.8937 21.4845 29.9454 21.4186 30.0188 21.4084L33.6897 20.9008C33.7631 20.8906 33.8338 20.9389 33.8447 21.0074C33.8556 21.0759 33.8039 21.1419 33.7305 21.1521L30.0596 21.6597C30.0514 21.6622 30.0433 21.6622 30.0378 21.6622Z" fill="white"/>
<path d="M30.0378 21.6622C30.0079 21.6622 29.9779 21.652 29.9507 21.6342L26.2798 18.8423C26.2227 18.7966 26.2145 18.718 26.2608 18.6621C26.307 18.6088 26.394 18.5987 26.4511 18.6444L30.122 21.4363C30.1791 21.4794 30.19 21.5606 30.1411 21.6139C30.1166 21.6469 30.0786 21.6622 30.0378 21.6622Z" fill="white"/>
<path d="M29.3579 26.2308C29.3525 26.2308 29.3443 26.2308 29.3389 26.2308C29.2655 26.2206 29.2138 26.1572 29.2219 26.0886L29.9017 21.5201C29.9072 21.4896 29.9235 21.4617 29.948 21.4414L32.1777 19.6139C32.2348 19.5683 32.3191 19.5733 32.3708 19.6266C32.4197 19.6799 32.4143 19.7586 32.3572 19.8068L30.1655 21.6038L29.4939 26.1216C29.483 26.1851 29.4259 26.2308 29.3579 26.2308Z" fill="white"/>
<path d="M29.3579 26.2308C29.3497 26.2308 29.3444 26.2308 29.3362 26.2283C29.2873 26.2207 29.2465 26.1902 29.2302 26.147L26.239 18.7866C26.2227 18.746 26.2309 18.6977 26.2608 18.6621C26.2907 18.6266 26.3424 18.6114 26.3886 18.6191L32.2893 19.5835C32.3165 19.5886 32.3409 19.5988 32.36 19.6191L33.8011 20.9389C33.8501 20.9846 33.8555 21.0582 33.812 21.1089L29.4613 26.1851C29.4368 26.213 29.3987 26.2308 29.3579 26.2308ZM26.5789 18.9059L29.4015 25.8501L33.5265 21.0379L32.2022 19.8272L26.5789 18.9059Z" fill="white"/>
</svg>
