<svg width="32" height="35" viewBox="0 0 32 35" fill="none" xmlns="http://www.w3.org/2000/svg">
<path d="M15.9975 13.7165C15.7233 13.7165 15.4719 13.5108 15.4376 13.2251C15.3919 12.9166 15.609 12.6196 15.9175 12.5739L31.3429 10.2886C31.6514 10.2429 31.9485 10.46 31.9942 10.7685C32.0399 11.077 31.8228 11.3741 31.5143 11.4198L16.0889 13.7051C16.0546 13.7165 16.0203 13.7165 15.9975 13.7165Z" fill="#FF5252"/>
<path d="M15.9975 13.7165C15.8718 13.7165 15.7457 13.6705 15.6315 13.5905L0.206036 1.02167C-0.0339155 0.815995 -0.0681944 0.461782 0.126052 0.210404C0.320298 -0.0295468 0.685938 -0.0752517 0.925889 0.130421L16.3513 12.6993C16.5913 12.8935 16.637 13.2592 16.4313 13.4991C16.3285 13.6477 16.1689 13.7165 15.9975 13.7165Z" fill="#FF5252"/>
<path d="M13.1404 34.2836C13.1175 34.2836 13.0833 34.2836 13.0604 34.2836C12.7519 34.2379 12.5348 33.9523 12.5691 33.6438L15.4257 13.0765C15.4485 12.9394 15.5171 12.8137 15.6199 12.7223L24.9894 4.49543C25.2294 4.28976 25.5836 4.31261 25.8007 4.55256C26.0064 4.79251 25.9835 5.14673 25.7435 5.36382L16.534 13.4536L13.7117 33.7923C13.666 34.078 13.4261 34.2836 13.1404 34.2836Z" fill="#FF5252"/>
<path d="M13.1404 34.2836C13.1061 34.2836 13.0835 34.2838 13.0492 34.2724C12.8436 34.2381 12.6722 34.101 12.6036 33.9067L0.0347406 0.770641C-0.0338168 0.587821 0.000363007 0.370372 0.126052 0.210404C0.25174 0.050437 0.468938 -0.0177697 0.663184 0.016509L25.4581 4.35848C25.5724 4.38133 25.6752 4.42704 25.7552 4.51845L31.8111 10.4601C32.0168 10.6658 32.0397 10.9971 31.8568 11.2257L13.5748 34.0781C13.472 34.2038 13.3118 34.2836 13.1404 34.2836ZM1.46302 1.30767L13.3235 32.5699L30.6571 10.9057L25.0925 5.4554L1.46302 1.30767Z" fill="#FF5252"/>
</svg>
