<svg width="38" height="27" viewBox="0 0 38 27" fill="none" xmlns="http://www.w3.org/2000/svg">
<path d="M24.5009 0C17.0089 0 11.0018 6.075 11.0018 13.5C11.0018 20.9925 17.0764 27 24.5009 27C31.9254 27 38 20.925 38 13.5C38 6.075 31.9254 0 24.5009 0ZM24.5009 18.4275C21.7336 18.4275 19.4387 16.1325 19.4387 13.365C19.4387 10.5975 21.7336 8.3025 24.5009 8.3025C27.2682 8.3025 29.5631 10.5975 29.5631 13.365C29.4956 16.2675 27.2682 18.4275 24.5009 18.4275ZM10.9343 3.8475V23.49H6.14209L0 3.8475H10.9343Z" fill="#8B3FFD"/>
</svg>
